<svg width="201" height="234" viewBox="0 0 201 234" fill="none" xmlns="http://www.w3.org/2000/svg">
<g clip-path="url(#clip0_969_1377)">
<g filter="url(#filter0_i_969_1377)">
<g clip-path="url(#clip1_969_1377)">
<rect x="1.41406" y="0.902344" width="198.347" height="256.198" rx="14.876" fill="url(#paint0_radial_969_1377)" fill-opacity="0.32"/>
<path d="M89.1715 21.2931C89.1434 21.009 89.0225 20.7883 88.8088 20.631C88.5951 20.4737 88.3052 20.3951 87.9389 20.3951C87.69 20.3951 87.4799 20.4303 87.3085 20.5007C87.1371 20.5688 87.0056 20.6639 86.9141 20.786C86.8249 20.9081 86.7802 21.0466 86.7802 21.2015C86.7756 21.3307 86.8026 21.4434 86.8612 21.5396C86.9223 21.6359 87.0056 21.7192 87.1113 21.7897C87.217 21.8578 87.339 21.9176 87.4776 21.9693C87.6161 22.0186 87.764 22.0609 87.9213 22.0961L88.5693 22.251C88.8839 22.3215 89.1727 22.4154 89.4357 22.5328C89.6986 22.6502 89.9264 22.7946 90.1189 22.966C90.3114 23.1374 90.4605 23.3393 90.5662 23.5717C90.6742 23.8041 90.7293 24.0706 90.7317 24.3712C90.7293 24.8125 90.6166 25.1952 90.3936 25.5193C90.1729 25.8409 89.8536 26.091 89.4357 26.2694C89.0201 26.4455 88.5188 26.5335 87.9319 26.5335C87.3496 26.5335 86.8425 26.4443 86.4105 26.2659C85.9808 26.0874 85.6451 25.8233 85.4032 25.4735C85.1637 25.1213 85.0381 24.6858 85.0264 24.1669H86.502C86.5185 24.4087 86.5877 24.6106 86.7098 24.7726C86.8342 24.9323 86.9998 25.0532 87.2064 25.1354C87.4153 25.2152 87.6513 25.2551 87.9143 25.2551C88.1725 25.2551 88.3967 25.2176 88.5869 25.1424C88.7795 25.0673 88.9285 24.9628 89.0342 24.829C89.1398 24.6952 89.1927 24.5414 89.1927 24.3676C89.1927 24.2056 89.1445 24.0695 89.0483 23.9591C88.9544 23.8488 88.8158 23.7548 88.6327 23.6774C88.4519 23.5999 88.2301 23.5294 87.9671 23.4661L87.1817 23.2688C86.5736 23.1209 86.0935 22.8897 85.7413 22.575C85.3891 22.2604 85.2142 21.8366 85.2166 21.3037C85.2142 20.867 85.3304 20.4854 85.5652 20.1591C85.8024 19.8327 86.1275 19.578 86.5408 19.3949C86.954 19.2117 87.4236 19.1202 87.9495 19.1202C88.4848 19.1202 88.952 19.2117 89.3512 19.3949C89.7526 19.578 90.0649 19.8327 90.2879 20.1591C90.511 20.4854 90.626 20.8634 90.6331 21.2931H89.1715ZM91.5656 26.4314V21.0219H93.0659V26.4314H91.5656ZM92.3193 20.3246C92.0962 20.3246 91.9049 20.2507 91.7452 20.1027C91.5879 19.9525 91.5093 19.7729 91.5093 19.5639C91.5093 19.3573 91.5879 19.18 91.7452 19.0321C91.9049 18.8819 92.0962 18.8067 92.3193 18.8067C92.5423 18.8067 92.7325 18.8819 92.8898 19.0321C93.0495 19.18 93.1293 19.3573 93.1293 19.5639C93.1293 19.7729 93.0495 19.9525 92.8898 20.1027C92.7325 20.2507 92.5423 20.3246 92.3193 20.3246ZM96.5411 28.5726C96.0551 28.5726 95.6384 28.5057 95.2909 28.3719C94.9458 28.2404 94.6711 28.0608 94.4668 27.8331C94.2625 27.6053 94.1299 27.3494 94.0688 27.0653L95.4564 26.8787C95.4987 26.9867 95.5656 27.0876 95.6572 27.1815C95.7487 27.2755 95.8696 27.3506 96.0199 27.4069C96.1725 27.4656 96.358 27.495 96.5764 27.495C96.9027 27.495 97.1715 27.4151 97.3828 27.2555C97.5965 27.0982 97.7033 26.8341 97.7033 26.4631V25.4735H97.6399C97.5742 25.6237 97.4756 25.7658 97.3441 25.8996C97.2126 26.0334 97.0436 26.1426 96.837 26.2271C96.6304 26.3117 96.3838 26.3539 96.0974 26.3539C95.6912 26.3539 95.3214 26.26 94.988 26.0722C94.657 25.882 94.3928 25.592 94.1956 25.2023C94.0008 24.8102 93.9033 24.3148 93.9033 23.7161C93.9033 23.1033 94.0031 22.5915 94.2027 22.1806C94.4022 21.7697 94.6675 21.4622 94.9986 21.2579C95.332 21.0536 95.6971 20.9515 96.0939 20.9515C96.3967 20.9515 96.6503 21.0031 96.8546 21.1065C97.0588 21.2074 97.2232 21.3342 97.3476 21.4868C97.4744 21.6371 97.5718 21.785 97.6399 21.9306H97.6963V21.0219H99.186V26.4842C99.186 26.9444 99.0733 27.3295 98.8479 27.6394C98.6225 27.9493 98.3102 28.1817 97.9111 28.3367C97.5143 28.494 97.0577 28.5726 96.5411 28.5726ZM96.5728 25.2269C96.8147 25.2269 97.0189 25.1671 97.1856 25.0473C97.3547 24.9252 97.4838 24.7515 97.573 24.5261C97.6646 24.2984 97.7104 24.026 97.7104 23.7091C97.7104 23.3921 97.6658 23.1174 97.5765 22.885C97.4873 22.6502 97.3582 22.4682 97.1891 22.3391C97.0201 22.2099 96.8147 22.1454 96.5728 22.1454C96.3263 22.1454 96.1185 22.2123 95.9495 22.3461C95.7804 22.4776 95.6525 22.6607 95.5656 22.8955C95.4787 23.1303 95.4353 23.4015 95.4353 23.7091C95.4353 24.0213 95.4787 24.2913 95.5656 24.5191C95.6548 24.7445 95.7828 24.9194 95.9495 25.0438C96.1185 25.1659 96.3263 25.2269 96.5728 25.2269ZM101.717 23.304V26.4314H100.216V21.0219H101.646V21.9763H101.709C101.829 21.6617 102.03 21.4128 102.312 21.2297C102.593 21.0442 102.935 20.9515 103.337 20.9515C103.712 20.9515 104.04 21.0337 104.319 21.198C104.599 21.3624 104.816 21.5972 104.971 21.9024C105.126 22.2053 105.203 22.5668 105.203 22.9871V26.4314H103.703V23.2547C103.705 22.9237 103.621 22.6654 103.449 22.48C103.278 22.2921 103.042 22.1982 102.741 22.1982C102.539 22.1982 102.361 22.2416 102.206 22.3285C102.053 22.4154 101.934 22.5422 101.847 22.7089C101.762 22.8732 101.719 23.0716 101.717 23.304ZM109.907 19.2188V26.4314H108.382V19.2188H109.907ZM112.47 23.304V26.4314H110.97V21.0219H112.399V21.9763H112.463C112.583 21.6617 112.783 21.4128 113.065 21.2297C113.347 21.0442 113.688 20.9515 114.09 20.9515C114.465 20.9515 114.793 21.0337 115.072 21.198C115.352 21.3624 115.569 21.5972 115.724 21.9024C115.879 22.2053 115.956 22.5668 115.956 22.9871V26.4314H114.456V23.2547C114.458 22.9237 114.374 22.6654 114.203 22.48C114.031 22.2921 113.795 22.1982 113.495 22.1982C113.293 22.1982 113.114 22.2416 112.959 22.3285C112.807 22.4154 112.687 22.5422 112.6 22.7089C112.516 22.8732 112.472 23.0716 112.47 23.304Z" fill="white"/>
<path d="M18.4157 44.2659V39.4575H21.543V40.1876H19.2867V41.493H21.381V42.2232H19.2867V43.5357H21.5618V44.2659H18.4157ZM22.3594 44.2659V40.6596H23.1718V41.2723H23.214C23.2892 41.0657 23.4136 40.9045 23.5873 40.7887C23.7611 40.6713 23.9685 40.6126 24.2095 40.6126C24.4537 40.6126 24.6595 40.6721 24.827 40.791C24.9961 40.9084 25.115 41.0689 25.1839 41.2723H25.2214C25.3013 41.072 25.4359 40.9123 25.6253 40.7934C25.8162 40.6729 26.0424 40.6126 26.3038 40.6126C26.6356 40.6126 26.9064 40.7175 27.1162 40.9272C27.3259 41.137 27.4308 41.443 27.4308 41.8452V44.2659H26.5785V41.9767C26.5785 41.7529 26.519 41.5893 26.4001 41.486C26.2811 41.3811 26.1355 41.3287 25.9634 41.3287C25.7583 41.3287 25.5979 41.3929 25.4821 41.5212C25.3678 41.648 25.3107 41.8131 25.3107 42.0166V44.2659H24.4772V41.9415C24.4772 41.7552 24.4208 41.6065 24.3081 41.4954C24.197 41.3843 24.0514 41.3287 23.8714 41.3287C23.7493 41.3287 23.6382 41.36 23.538 41.4226C23.4379 41.4837 23.358 41.5705 23.2986 41.6832C23.2391 41.7944 23.2093 41.9243 23.2093 42.073V44.2659H22.3594ZM29.2961 44.3387C29.0676 44.3387 28.8617 44.298 28.6786 44.2166C28.497 44.1336 28.353 44.0115 28.2466 43.8503C28.1417 43.6891 28.0893 43.4903 28.0893 43.2539C28.0893 43.0505 28.1268 42.8822 28.202 42.7492C28.2771 42.6161 28.3796 42.5097 28.5095 42.4298C28.6395 42.35 28.7858 42.2898 28.9486 42.2491C29.1129 42.2068 29.2828 42.1763 29.4581 42.1575C29.6694 42.1356 29.8408 42.116 29.9723 42.0988C30.1037 42.08 30.1992 42.0518 30.2587 42.0143C30.3197 41.9751 30.3503 41.9149 30.3503 41.8335V41.8194C30.3503 41.6425 30.2978 41.5056 30.193 41.4085C30.0881 41.3115 29.937 41.263 29.7398 41.263C29.5316 41.263 29.3665 41.3083 29.2444 41.3991C29.1239 41.4899 29.0425 41.5971 29.0002 41.7208L28.2067 41.6081C28.2693 41.389 28.3726 41.2058 28.5166 41.0587C28.6606 40.91 28.8367 40.7989 29.0449 40.7253C29.253 40.6502 29.4831 40.6126 29.7351 40.6126C29.9089 40.6126 30.0818 40.6329 30.254 40.6736C30.4262 40.7143 30.5835 40.7816 30.7259 40.8756C30.8684 40.9679 30.9826 41.0939 31.0687 41.2536C31.1564 41.4132 31.2002 41.6128 31.2002 41.8523V44.2659H30.3831V43.7705H30.355C30.3033 43.8706 30.2305 43.9646 30.1366 44.0522C30.0443 44.1383 29.9277 44.208 29.7868 44.2612C29.6475 44.3128 29.4839 44.3387 29.2961 44.3387ZM29.5168 43.7141C29.6874 43.7141 29.8353 43.6805 29.9605 43.6132C30.0857 43.5443 30.182 43.4535 30.2493 43.3408C30.3182 43.2281 30.3526 43.1052 30.3526 42.9722V42.5472C30.326 42.5691 30.2806 42.5895 30.2164 42.6083C30.1538 42.6271 30.0834 42.6435 30.0051 42.6576C29.9269 42.6717 29.8494 42.6842 29.7727 42.6952C29.696 42.7061 29.6295 42.7155 29.5731 42.7233C29.4463 42.7405 29.3329 42.7687 29.2327 42.8078C29.1325 42.847 29.0535 42.9018 28.9956 42.9722C28.9376 43.0411 28.9087 43.1303 28.9087 43.2399C28.9087 43.3964 28.9658 43.5146 29.0801 43.5944C29.1943 43.6742 29.3399 43.7141 29.5168 43.7141ZM32.0201 44.2659V40.6596H32.87V44.2659H32.0201ZM32.4474 40.1477C32.3128 40.1477 32.197 40.1031 32.0999 40.0139C32.0029 39.9231 31.9544 39.8143 31.9544 39.6875C31.9544 39.5592 32.0029 39.4504 32.0999 39.3612C32.197 39.2704 32.3128 39.225 32.4474 39.225C32.5836 39.225 32.6994 39.2704 32.7949 39.3612C32.8919 39.4504 32.9405 39.5592 32.9405 39.6875C32.9405 39.8143 32.8919 39.9231 32.7949 40.0139C32.6994 40.1031 32.5836 40.1477 32.4474 40.1477ZM34.5592 39.4575V44.2659H33.7093V39.4575H34.5592Z" fill="white"/>
<g filter="url(#filter1_i_969_1377)">
<rect x="18.4414" y="50.0715" width="164.289" height="18.8347" rx="1.97934" stroke="#868685"/>
<g opacity="0.68" clip-path="url(#clip2_969_1377)">
<path fill-rule="evenodd" clip-rule="evenodd" d="M30.7324 57.7039L28.1237 59.8643C28.0496 59.9257 27.9563 59.9593 27.8601 59.9593C27.7638 59.9593 27.6706 59.9257 27.5964 59.8643L24.989 57.7039C24.975 57.746 24.9679 57.7901 24.9679 57.8345V61.1403C24.9679 61.2499 25.0114 61.355 25.0889 61.4325C25.1664 61.51 25.2715 61.5535 25.3811 61.5535H30.3398C30.4494 61.5535 30.5545 61.51 30.632 61.4325C30.7095 61.355 30.753 61.2499 30.753 61.1403V57.8345C30.7532 57.7901 30.7462 57.7461 30.7324 57.7039ZM25.3811 57.0081H30.3398C30.559 57.0081 30.7692 57.0951 30.9242 57.2501C31.0792 57.4051 31.1663 57.6153 31.1663 57.8345V61.1403C31.1663 61.3595 31.0792 61.5697 30.9242 61.7247C30.7692 61.8797 30.559 61.9667 30.3398 61.9667H25.3811C25.1619 61.9667 24.9517 61.8797 24.7967 61.7247C24.6418 61.5697 24.5547 61.3595 24.5547 61.1403V57.8345C24.5547 57.6153 24.6418 57.4051 24.7967 57.2501C24.9517 57.0951 25.1619 57.0081 25.3811 57.0081ZM25.2944 57.4213L27.5985 59.3233C27.6723 59.3843 27.765 59.4177 27.8607 59.418C27.9564 59.4182 28.0492 59.3852 28.1233 59.3246L30.4506 57.4213H25.2944Z" fill="white"/>
</g>
<path opacity="0.68" d="M34.9821 60.9895V56.7821H37.5214V57.2341H35.4916V58.6557H37.3899V59.1077H35.4916V60.5375H37.5542V60.9895H34.9821ZM38.6951 59.0913V60.9895H38.2103V57.834H38.6787V58.327H38.7198C38.7937 58.1668 38.906 58.038 39.0567 57.9408C39.2073 57.8422 39.4018 57.7929 39.6401 57.7929C39.8538 57.7929 40.0407 57.8367 40.201 57.9244C40.3612 58.0107 40.4858 58.1421 40.5749 58.3188C40.6639 58.4941 40.7084 58.716 40.7084 58.9844V60.9895H40.2236V59.0173C40.2236 58.7694 40.1592 58.5763 40.0305 58.438C39.9017 58.2983 39.725 58.2284 39.5004 58.2284C39.3457 58.2284 39.2073 58.262 39.0854 58.3291C38.9649 58.3962 38.8697 58.4941 38.7999 58.6229C38.73 58.7516 38.6951 58.9077 38.6951 59.0913ZM42.803 57.834V58.2449H41.1678V57.834H42.803ZM41.6444 57.078H42.1292V60.0856C42.1292 60.2225 42.1491 60.3253 42.1888 60.3937C42.2299 60.4608 42.2819 60.506 42.3449 60.5293C42.4093 60.5512 42.4771 60.5622 42.5483 60.5622C42.6017 60.5622 42.6455 60.5595 42.6798 60.554C42.714 60.5471 42.7414 60.5416 42.762 60.5375L42.8606 60.9731C42.8277 60.9854 42.7818 60.9977 42.7229 61.01C42.664 61.0237 42.5894 61.0306 42.499 61.0306C42.362 61.0306 42.2278 61.0011 42.0963 60.9423C41.9662 60.8834 41.858 60.7937 41.7717 60.6731C41.6868 60.5526 41.6444 60.4006 41.6444 60.2171V57.078ZM44.6578 61.0552C44.3538 61.0552 44.0915 60.9881 43.871 60.8539C43.6519 60.7183 43.4827 60.5293 43.3636 60.2869C43.2458 60.0431 43.1869 59.7596 43.1869 59.4364C43.1869 59.1132 43.2458 58.8283 43.3636 58.5818C43.4827 58.3339 43.6484 58.1408 43.8607 58.0024C44.0744 57.8627 44.3236 57.7929 44.6085 57.7929C44.7729 57.7929 44.9352 57.8203 45.0954 57.8751C45.2557 57.9299 45.4015 58.0189 45.533 58.1421C45.6645 58.264 45.7692 58.4256 45.8473 58.627C45.9254 58.8283 45.9644 59.0762 45.9644 59.3707V59.5761H43.532V59.157H45.4714C45.4714 58.979 45.4358 58.8201 45.3645 58.6804C45.2947 58.5407 45.1947 58.4304 45.0646 58.3496C44.9359 58.2688 44.7838 58.2284 44.6085 58.2284C44.4154 58.2284 44.2483 58.2764 44.1073 58.3722C43.9676 58.4667 43.86 58.59 43.7847 58.742C43.7094 58.894 43.6717 59.057 43.6717 59.231V59.5104C43.6717 59.7487 43.7128 59.9507 43.795 60.1164C43.8785 60.2807 43.9943 60.4061 44.1422 60.4923C44.2901 60.5773 44.462 60.6197 44.6578 60.6197C44.7852 60.6197 44.9002 60.6019 45.003 60.5663C45.1071 60.5293 45.1968 60.4745 45.2721 60.402C45.3474 60.328 45.4056 60.2362 45.4467 60.1267L45.9151 60.2581C45.8658 60.417 45.7829 60.5567 45.6665 60.6772C45.5501 60.7964 45.4063 60.8895 45.2351 60.9566C45.0639 61.0224 44.8715 61.0552 44.6578 61.0552ZM46.5383 60.9895V57.834H47.0067V58.3106H47.0396C47.0971 58.1545 47.2012 58.0278 47.3518 57.9305C47.5025 57.8333 47.6723 57.7847 47.8613 57.7847C47.8969 57.7847 47.9414 57.7854 47.9948 57.7867C48.0483 57.7881 48.0887 57.7902 48.1161 57.7929V58.2859C48.0996 58.2818 48.062 58.2757 48.0031 58.2675C47.9455 58.2579 47.8846 58.2531 47.8202 58.2531C47.6668 58.2531 47.5299 58.2853 47.4093 58.3496C47.2902 58.4126 47.1957 58.5003 47.1258 58.6126C47.0574 58.7235 47.0231 58.8502 47.0231 58.9926V60.9895H46.5383ZM50.3028 62.1728C50.2207 62.1728 50.1474 62.166 50.083 62.1523C50.0186 62.14 49.9741 62.1276 49.9495 62.1153L50.0727 61.688C50.1905 61.7181 50.2946 61.7291 50.385 61.7209C50.4754 61.7126 50.5555 61.6722 50.6254 61.5997C50.6966 61.5284 50.7616 61.4127 50.8205 61.2525L50.9109 61.0059L49.744 57.834H50.27L51.141 60.3485H51.1739L52.0449 57.834H52.5709L51.2314 61.4497C51.1711 61.6127 51.0965 61.7476 51.0075 61.8544C50.9185 61.9626 50.8151 62.0427 50.6973 62.0948C50.5809 62.1468 50.4494 62.1728 50.3028 62.1728ZM54.2161 61.0552C53.9312 61.0552 53.6813 60.9874 53.4663 60.8519C53.2526 60.7163 53.0855 60.5266 52.965 60.2828C52.8458 60.039 52.7863 59.7541 52.7863 59.4282C52.7863 59.0995 52.8458 58.8125 52.965 58.5674C53.0855 58.3222 53.2526 58.1319 53.4663 57.9963C53.6813 57.8607 53.9312 57.7929 54.2161 57.7929C54.501 57.7929 54.7502 57.8607 54.9639 57.9963C55.1789 58.1319 55.346 58.3222 55.4652 58.5674C55.5857 58.8125 55.6459 59.0995 55.6459 59.4282C55.6459 59.7541 55.5857 60.039 55.4652 60.2828C55.346 60.5266 55.1789 60.7163 54.9639 60.8519C54.7502 60.9874 54.501 61.0552 54.2161 61.0552ZM54.2161 60.6197C54.4325 60.6197 54.6105 60.5642 54.7502 60.4533C54.8899 60.3424 54.9933 60.1965 55.0604 60.0157C55.1276 59.8349 55.1611 59.6391 55.1611 59.4282C55.1611 59.2173 55.1276 59.0207 55.0604 58.8386C54.9933 58.6564 54.8899 58.5092 54.7502 58.3969C54.6105 58.2846 54.4325 58.2284 54.2161 58.2284C53.9997 58.2284 53.8217 58.2846 53.682 58.3969C53.5423 58.5092 53.4389 58.6564 53.3718 58.8386C53.3046 59.0207 53.2711 59.2173 53.2711 59.4282C53.2711 59.6391 53.3046 59.8349 53.3718 60.0157C53.4389 60.1965 53.5423 60.3424 53.682 60.4533C53.8217 60.5642 53.9997 60.6197 54.2161 60.6197ZM58.211 59.6994V57.834H58.6959V60.9895H58.211V60.4554H58.1782C58.1042 60.6156 57.9892 60.7519 57.833 60.8642C57.6769 60.9751 57.4797 61.0306 57.2414 61.0306C57.0441 61.0306 56.8688 60.9874 56.7154 60.9012C56.5621 60.8135 56.4415 60.682 56.3539 60.5067C56.2662 60.33 56.2224 60.1075 56.2224 59.8391V57.834H56.7072V59.8062C56.7072 60.0363 56.7716 60.2198 56.9003 60.3568C57.0305 60.4937 57.1962 60.5622 57.3975 60.5622C57.518 60.5622 57.6406 60.5314 57.7652 60.4697C57.8912 60.4081 57.9967 60.3136 58.0816 60.1862C58.1679 60.0589 58.211 59.8966 58.211 59.6994ZM59.4202 60.9895V57.834H59.8886V58.3106H59.9215C59.979 58.1545 60.0831 58.0278 60.2338 57.9305C60.3844 57.8333 60.5543 57.7847 60.7433 57.7847C60.7789 57.7847 60.8234 57.7854 60.8768 57.7867C60.9302 57.7881 60.9706 57.7902 60.998 57.7929V58.2859C60.9816 58.2818 60.9439 58.2757 60.885 58.2675C60.8275 58.2579 60.7665 58.2531 60.7022 58.2531C60.5488 58.2531 60.4118 58.2853 60.2913 58.3496C60.1721 58.4126 60.0776 58.5003 60.0078 58.6126C59.9393 58.7235 59.9051 58.8502 59.9051 58.9926V60.9895H59.4202ZM64.1955 61.0552C63.8915 61.0552 63.6292 60.9881 63.4087 60.8539C63.1896 60.7183 63.0204 60.5293 62.9013 60.2869C62.7835 60.0431 62.7246 59.7596 62.7246 59.4364C62.7246 59.1132 62.7835 58.8283 62.9013 58.5818C63.0204 58.3339 63.1861 58.1408 63.3984 58.0024C63.6121 57.8627 63.8613 57.7929 64.1462 57.7929C64.3106 57.7929 64.4729 57.8203 64.6331 57.8751C64.7933 57.9299 64.9392 58.0189 65.0707 58.1421C65.2022 58.264 65.3069 58.4256 65.385 58.627C65.4631 58.8283 65.5021 59.0762 65.5021 59.3707V59.5761H63.0697V59.157H65.0091C65.0091 58.979 64.9734 58.8201 64.9022 58.6804C64.8324 58.5407 64.7324 58.4304 64.6023 58.3496C64.4735 58.2688 64.3215 58.2284 64.1462 58.2284C63.9531 58.2284 63.786 58.2764 63.6449 58.3722C63.5052 58.4667 63.3977 58.59 63.3224 58.742C63.2471 58.894 63.2094 59.057 63.2094 59.231V59.5104C63.2094 59.7487 63.2505 59.9507 63.3327 60.1164C63.4162 60.2807 63.532 60.4061 63.6799 60.4923C63.8278 60.5773 63.9997 60.6197 64.1955 60.6197C64.3229 60.6197 64.4379 60.6019 64.5407 60.5663C64.6447 60.5293 64.7344 60.4745 64.8098 60.402C64.8851 60.328 64.9433 60.2362 64.9844 60.1267L65.4528 60.2581C65.4035 60.417 65.3206 60.5567 65.2042 60.6772C65.0878 60.7964 64.944 60.8895 64.7728 60.9566C64.6016 61.0224 64.4092 61.0552 64.1955 61.0552ZM66.076 60.9895V57.834H66.5444V58.327H66.5855C66.6512 58.1586 66.7574 58.0278 66.9039 57.9346C67.0504 57.8401 67.2264 57.7929 67.4319 57.7929C67.6401 57.7929 67.8133 57.8401 67.9516 57.9346C68.0913 58.0278 68.2002 58.1586 68.2783 58.327H68.3111C68.392 58.164 68.5132 58.0346 68.6748 57.9388C68.8364 57.8415 69.0302 57.7929 69.2562 57.7929C69.5383 57.7929 69.7691 57.8812 69.9485 58.0579C70.1279 58.2332 70.2176 58.5064 70.2176 58.8776V60.9895H69.7328V58.8776C69.7328 58.6448 69.6691 58.4784 69.5417 58.3784C69.4143 58.2784 69.2644 58.2284 69.0918 58.2284C68.8699 58.2284 68.6981 58.2955 68.5762 58.4297C68.4543 58.5626 68.3933 58.7311 68.3933 58.9351V60.9895H67.9003V58.8283C67.9003 58.6489 67.8421 58.5044 67.7257 58.3948C67.6092 58.2839 67.4593 58.2284 67.2757 58.2284C67.1497 58.2284 67.032 58.262 66.9224 58.3291C66.8142 58.3962 66.7265 58.4893 66.6594 58.6085C66.5937 58.7263 66.5608 58.8625 66.5608 59.0173V60.9895H66.076ZM71.869 61.0635C71.6691 61.0635 71.4876 61.0258 71.3246 60.9505C71.1616 60.8738 71.0322 60.7635 70.9363 60.6197C70.8405 60.4745 70.7925 60.2992 70.7925 60.0938C70.7925 59.913 70.8281 59.7665 70.8993 59.6542C70.9706 59.5405 71.0658 59.4515 71.1849 59.3871C71.3041 59.3227 71.4355 59.2748 71.5793 59.2433C71.7245 59.2104 71.8704 59.1844 72.0169 59.1652C72.2087 59.1406 72.3641 59.1221 72.4833 59.1097C72.6038 59.0961 72.6914 59.0735 72.7462 59.042C72.8024 59.0105 72.8305 58.9557 72.8305 58.8776V58.8612C72.8305 58.6585 72.775 58.501 72.6641 58.3887C72.5545 58.2764 72.3881 58.2202 72.1648 58.2202C71.9334 58.2202 71.7519 58.2709 71.6204 58.3722C71.489 58.4736 71.3965 58.5818 71.3431 58.6968L70.8829 58.5325C70.9651 58.3407 71.0747 58.1914 71.2116 58.0846C71.3499 57.9764 71.5006 57.9011 71.6636 57.8586C71.8279 57.8148 71.9895 57.7929 72.1484 57.7929C72.2498 57.7929 72.3662 57.8052 72.4977 57.8299C72.6305 57.8532 72.7586 57.9018 72.8818 57.9757C73.0065 58.0497 73.1099 58.1613 73.192 58.3106C73.2742 58.4599 73.3153 58.6598 73.3153 58.9105V60.9895H72.8305V60.5622H72.8058C72.7729 60.6307 72.7182 60.7039 72.6415 60.782C72.5648 60.8601 72.4627 60.9265 72.3354 60.9813C72.208 61.0361 72.0525 61.0635 71.869 61.0635ZM71.943 60.6279C72.1347 60.6279 72.2963 60.5903 72.4278 60.5149C72.5607 60.4396 72.6606 60.3424 72.7277 60.2232C72.7962 60.1041 72.8305 59.9787 72.8305 59.8473V59.4035C72.8099 59.4282 72.7647 59.4508 72.6949 59.4713C72.6264 59.4905 72.547 59.5076 72.4566 59.5227C72.3675 59.5364 72.2806 59.5487 72.1957 59.5597C72.1121 59.5692 72.0443 59.5775 71.9923 59.5843C71.8663 59.6007 71.7485 59.6275 71.6389 59.6644C71.5307 59.7 71.4431 59.7541 71.376 59.8267C71.3102 59.8979 71.2774 59.9952 71.2774 60.1184C71.2774 60.2869 71.3397 60.4143 71.4643 60.5006C71.5903 60.5855 71.7499 60.6279 71.943 60.6279ZM74.0366 60.9895V57.834H74.5214V60.9895H74.0366ZM74.2831 57.3081C74.1886 57.3081 74.1071 57.2759 74.0386 57.2115C73.9715 57.1471 73.938 57.0698 73.938 56.9794C73.938 56.889 73.9715 56.8116 74.0386 56.7472C74.1071 56.6828 74.1886 56.6507 74.2831 56.6507C74.3776 56.6507 74.4584 56.6828 74.5255 56.7472C74.594 56.8116 74.6282 56.889 74.6282 56.9794C74.6282 57.0698 74.594 57.1471 74.5255 57.2115C74.4584 57.2759 74.3776 57.3081 74.2831 57.3081ZM75.7306 56.7821V60.9895H75.2458V56.7821H75.7306Z" fill="white"/>
</g>
<path d="M18.4157 86.3237V81.5153H20.2188C20.5882 81.5153 20.8981 81.5842 21.1486 81.7219C21.4006 81.8597 21.5908 82.0491 21.7191 82.2901C21.849 82.5296 21.914 82.8019 21.914 83.1072C21.914 83.4155 21.849 83.6894 21.7191 83.9289C21.5892 84.1684 21.3975 84.357 21.1439 84.4947C20.8903 84.6309 20.5781 84.699 20.2071 84.699H19.012V83.9829H20.0897C20.3057 83.9829 20.4826 83.9453 20.6203 83.8702C20.7581 83.7951 20.8598 83.6918 20.9255 83.5603C20.9928 83.4288 21.0265 83.2778 21.0265 83.1072C21.0265 82.9366 20.9928 82.7863 20.9255 82.6564C20.8598 82.5265 20.7573 82.4255 20.618 82.3535C20.4802 82.2799 20.3026 82.2432 20.085 82.2432H19.2867V86.3237H18.4157ZM23.5715 86.3965C23.343 86.3965 23.1371 86.3558 22.954 86.2744C22.7724 86.1915 22.6284 86.0694 22.522 85.9082C22.4171 85.7469 22.3647 85.5482 22.3647 85.3118C22.3647 85.1083 22.4023 84.9401 22.4774 84.807C22.5525 84.674 22.655 84.5675 22.785 84.4877C22.9149 84.4079 23.0612 84.3476 23.224 84.3069C23.3884 84.2647 23.5582 84.2341 23.7335 84.2154C23.9448 84.1934 24.1162 84.1739 24.2477 84.1567C24.3792 84.1379 24.4746 84.1097 24.5341 84.0721C24.5952 84.033 24.6257 83.9727 24.6257 83.8913V83.8773C24.6257 83.7004 24.5732 83.5634 24.4684 83.4664C24.3635 83.3693 24.2125 83.3208 24.0152 83.3208C23.8071 83.3208 23.6419 83.3662 23.5198 83.457C23.3993 83.5478 23.3179 83.655 23.2757 83.7787L22.4821 83.666C22.5447 83.4468 22.648 83.2637 22.792 83.1166C22.936 82.9679 23.1121 82.8567 23.3203 82.7832C23.5284 82.708 23.7585 82.6705 24.0105 82.6705C24.1843 82.6705 24.3572 82.6908 24.5294 82.7315C24.7016 82.7722 24.8589 82.8395 25.0013 82.9334C25.1438 83.0258 25.258 83.1518 25.3441 83.3114C25.4318 83.4711 25.4756 83.6707 25.4756 83.9101V86.3237H24.6585V85.8283H24.6304C24.5787 85.9285 24.5059 86.0224 24.412 86.1101C24.3197 86.1962 24.2031 86.2658 24.0622 86.319C23.9229 86.3707 23.7593 86.3965 23.5715 86.3965ZM23.7922 85.772C23.9628 85.772 24.1107 85.7383 24.2359 85.671C24.3612 85.6022 24.4574 85.5114 24.5247 85.3987C24.5936 85.286 24.628 85.1631 24.628 85.0301V84.6051C24.6014 84.627 24.556 84.6474 24.4919 84.6661C24.4292 84.6849 24.3588 84.7014 24.2805 84.7154C24.2023 84.7295 24.1248 84.7421 24.0481 84.753C23.9714 84.764 23.9049 84.7734 23.8485 84.7812C23.7218 84.7984 23.6083 84.8266 23.5081 84.8657C23.4079 84.9048 23.3289 84.9596 23.271 85.0301C23.2131 85.0989 23.1841 85.1881 23.1841 85.2977C23.1841 85.4542 23.2412 85.5724 23.3555 85.6522C23.4698 85.7321 23.6153 85.772 23.7922 85.772ZM29.1458 83.6707L28.371 83.7552C28.3491 83.6769 28.3108 83.6033 28.256 83.5345C28.2028 83.4656 28.1308 83.41 28.04 83.3678C27.9492 83.3255 27.8381 83.3044 27.7066 83.3044C27.5297 83.3044 27.381 83.3427 27.2605 83.4194C27.1415 83.4961 27.0828 83.5955 27.0844 83.7176C27.0828 83.8225 27.1212 83.9078 27.1994 83.9735C27.2793 84.0393 27.4107 84.0933 27.5939 84.1355L28.209 84.267C28.5502 84.3406 28.8038 84.4572 28.9697 84.6168C29.1372 84.7765 29.2217 84.9855 29.2233 85.2437C29.2217 85.4707 29.1552 85.671 29.0237 85.8448C28.8938 86.0169 28.713 86.1516 28.4814 86.2486C28.2497 86.3456 27.9836 86.3942 27.6831 86.3942C27.2417 86.3942 26.8864 86.3018 26.6172 86.1171C26.348 85.9309 26.1875 85.6718 26.1359 85.34L26.9647 85.2602C27.0022 85.4229 27.082 85.5458 27.2041 85.6288C27.3262 85.7117 27.4851 85.7532 27.6808 85.7532C27.8827 85.7532 28.0447 85.7117 28.1668 85.6288C28.2904 85.5458 28.3522 85.4433 28.3522 85.3212C28.3522 85.2179 28.3123 85.1326 28.2325 85.0653C28.1542 84.998 28.0321 84.9463 27.8662 84.9103L27.2511 84.7812C26.9052 84.7092 26.6493 84.5879 26.4833 84.4173C26.3174 84.2451 26.2353 84.0275 26.2368 83.7646C26.2353 83.5423 26.2955 83.3498 26.4176 83.187C26.5413 83.0226 26.7127 82.8959 26.9318 82.8066C27.1525 82.7159 27.4068 82.6705 27.6948 82.6705C28.1175 82.6705 28.4501 82.7605 28.6927 82.9405C28.9369 83.1205 29.0879 83.3639 29.1458 83.6707ZM32.7397 83.6707L31.9649 83.7552C31.943 83.6769 31.9047 83.6033 31.8499 83.5345C31.7967 83.4656 31.7247 83.41 31.6339 83.3678C31.5431 83.3255 31.432 83.3044 31.3005 83.3044C31.1236 83.3044 30.9749 83.3427 30.8544 83.4194C30.7354 83.4961 30.6767 83.5955 30.6783 83.7176C30.6767 83.8225 30.7151 83.9078 30.7933 83.9735C30.8732 84.0393 31.0047 84.0933 31.1878 84.1355L31.8029 84.267C32.1441 84.3406 32.3977 84.4572 32.5636 84.6168C32.7311 84.7765 32.8156 84.9855 32.8172 85.2437C32.8156 85.4707 32.7491 85.671 32.6176 85.8448C32.4877 86.0169 32.3069 86.1516 32.0753 86.2486C31.8436 86.3456 31.5775 86.3942 31.277 86.3942C30.8356 86.3942 30.4803 86.3018 30.2111 86.1171C29.9419 85.9309 29.7814 85.6718 29.7298 85.34L30.5586 85.2602C30.5961 85.4229 30.676 85.5458 30.798 85.6288C30.9201 85.7117 31.079 85.7532 31.2747 85.7532C31.4766 85.7532 31.6386 85.7117 31.7607 85.6288C31.8843 85.5458 31.9461 85.4433 31.9461 85.3212C31.9461 85.2179 31.9062 85.1326 31.8264 85.0653C31.7481 84.998 31.6261 84.9463 31.4601 84.9103L30.845 84.7812C30.4991 84.7092 30.2432 84.5879 30.0772 84.4173C29.9113 84.2451 29.8292 84.0275 29.8307 83.7646C29.8292 83.5423 29.8894 83.3498 30.0115 83.187C30.1352 83.0226 30.3066 82.8959 30.5257 82.8066C30.7464 82.7159 31.0007 82.6705 31.2887 82.6705C31.7114 82.6705 32.044 82.7605 32.2866 82.9405C32.5308 83.1205 32.6818 83.3639 32.7397 83.6707ZM34.2276 86.3237L33.2086 82.7174H34.075L34.7089 85.2531H34.7418L35.3898 82.7174H36.2468L36.8948 85.239H36.93L37.5545 82.7174H38.4232L37.4019 86.3237H36.5168L35.8406 83.8867H35.7913L35.1151 86.3237H34.2276ZM40.4517 86.3942C40.0995 86.3942 39.7943 86.3167 39.536 86.1617C39.2778 86.0068 39.0774 85.79 38.935 85.5114C38.7941 85.2328 38.7237 84.9072 38.7237 84.5347C38.7237 84.1621 38.7941 83.8358 38.935 83.5556C39.0774 83.2754 39.2778 83.0579 39.536 82.9029C39.7943 82.7479 40.0995 82.6705 40.4517 82.6705C40.8039 82.6705 41.1091 82.7479 41.3674 82.9029C41.6256 83.0579 41.8252 83.2754 41.9661 83.5556C42.1085 83.8358 42.1797 84.1621 42.1797 84.5347C42.1797 84.9072 42.1085 85.2328 41.9661 85.5114C41.8252 85.79 41.6256 86.0068 41.3674 86.1617C41.1091 86.3167 40.8039 86.3942 40.4517 86.3942ZM40.4564 85.7133C40.6473 85.7133 40.807 85.6609 40.9353 85.556C41.0637 85.4495 41.1592 85.3071 41.2218 85.1287C41.286 84.9502 41.318 84.7514 41.318 84.5323C41.318 84.3116 41.286 84.112 41.2218 83.9336C41.1592 83.7536 41.0637 83.6104 40.9353 83.504C40.807 83.3975 40.6473 83.3443 40.4564 83.3443C40.2607 83.3443 40.0979 83.3975 39.968 83.504C39.8397 83.6104 39.7434 83.7536 39.6792 83.9336C39.6166 84.112 39.5853 84.3116 39.5853 84.5323C39.5853 84.7514 39.6166 84.9502 39.6792 85.1287C39.7434 85.3071 39.8397 85.4495 39.968 85.556C40.0979 85.6609 40.2607 85.7133 40.4564 85.7133ZM42.8664 86.3237V82.7174H43.6905V83.3185H43.728C43.7938 83.1103 43.9065 82.9499 44.0661 82.8372C44.2274 82.7229 44.4113 82.6658 44.6179 82.6658C44.6648 82.6658 44.7173 82.6681 44.7752 82.6728C44.8347 82.6759 44.884 82.6814 44.9231 82.6892V83.4711C44.8871 83.4586 44.83 83.4476 44.7517 83.4382C44.675 83.4273 44.6007 83.4218 44.5287 83.4218C44.3737 83.4218 44.2344 83.4554 44.1107 83.5227C43.9887 83.5885 43.8924 83.68 43.822 83.7974C43.7515 83.9148 43.7163 84.0502 43.7163 84.2036V86.3237H42.8664ZM46.6428 86.3871C46.3595 86.3871 46.106 86.3143 45.8821 86.1688C45.6583 86.0232 45.4814 85.8119 45.3515 85.5348C45.2216 85.2578 45.1566 84.9213 45.1566 84.5253C45.1566 84.1246 45.2224 83.7865 45.3539 83.511C45.4869 83.2339 45.6661 83.025 45.8915 82.8841C46.1169 82.7417 46.3681 82.6705 46.6452 82.6705C46.8565 82.6705 47.0302 82.7065 47.1664 82.7785C47.3026 82.8489 47.4106 82.9342 47.4904 83.0344C47.5702 83.133 47.6321 83.2261 47.6759 83.3138H47.7111V81.5153H48.5634V86.3237H47.7275V85.7555H47.6759C47.6321 85.8432 47.5687 85.9363 47.4857 86.0349C47.4028 86.132 47.2932 86.2149 47.157 86.2838C47.0208 86.3527 46.8494 86.3871 46.6428 86.3871ZM46.88 85.6898C47.06 85.6898 47.2134 85.6413 47.3401 85.5442C47.4669 85.4456 47.5632 85.3087 47.6289 85.1334C47.6947 84.9581 47.7275 84.7538 47.7275 84.5206C47.7275 84.2874 47.6947 84.0847 47.6289 83.9125C47.5648 83.7403 47.4693 83.6065 47.3425 83.511C47.2173 83.4155 47.0631 83.3678 46.88 83.3678C46.6906 83.3678 46.5325 83.4171 46.4057 83.5157C46.2789 83.6143 46.1834 83.7505 46.1193 83.9242C46.0551 84.098 46.023 84.2967 46.023 84.5206C46.023 84.746 46.0551 84.9471 46.1193 85.124C46.185 85.2993 46.2813 85.4378 46.408 85.5395C46.5364 85.6397 46.6937 85.6898 46.88 85.6898Z" fill="white"/>
<rect x="18.4414" y="92.1294" width="164.289" height="18.8347" rx="1.97934" fill="#0D0D0D" fill-opacity="0.01"/>
<rect x="18.4414" y="92.1294" width="164.289" height="18.8347" rx="1.97934" stroke="#868685"/>
<g opacity="0.68" clip-path="url(#clip3_969_1377)">
<path d="M26.0026 101.135C25.9479 101.135 25.8953 101.157 25.8566 101.196C25.8178 101.235 25.796 101.287 25.796 101.342V103.821C25.796 103.876 25.8178 103.929 25.8566 103.967C25.8953 104.006 25.9479 104.028 26.0026 104.028H29.7217C29.7765 104.028 29.829 104.006 29.8678 103.967C29.9065 103.929 29.9283 103.876 29.9283 103.821V101.342C29.9283 101.287 29.9065 101.235 29.8678 101.196C29.829 101.157 29.7765 101.135 29.7217 101.135H26.0026ZM26.0026 100.722H29.7217C29.886 100.722 30.0437 100.787 30.1599 100.904C30.2762 101.02 30.3415 101.178 30.3415 101.342V103.821C30.3415 103.986 30.2762 104.143 30.1599 104.26C30.0437 104.376 29.886 104.441 29.7217 104.441H26.0026C25.8383 104.441 25.6806 104.376 25.5644 104.26C25.4481 104.143 25.3828 103.986 25.3828 103.821V101.342C25.3828 101.178 25.4481 101.02 25.5644 100.904C25.6806 100.787 25.8383 100.722 26.0026 100.722Z" fill="white"/>
<path d="M27.8599 101.755C27.9147 101.755 27.9673 101.777 28.006 101.815C28.0448 101.854 28.0665 101.907 28.0665 101.962V103.201C28.0665 103.256 28.0448 103.309 28.006 103.347C27.9673 103.386 27.9147 103.408 27.8599 103.408C27.8051 103.408 27.7526 103.386 27.7138 103.347C27.6751 103.309 27.6533 103.256 27.6533 103.201V101.962C27.6533 101.907 27.6751 101.854 27.7138 101.815C27.7526 101.777 27.8051 101.755 27.8599 101.755ZM29.0996 100.722V100.309C29.0996 99.9799 28.969 99.6646 28.7365 99.4321C28.504 99.1996 28.1887 99.069 27.8599 99.069C27.5311 99.069 27.2158 99.1996 26.9833 99.4321C26.7509 99.6646 26.6203 99.9799 26.6203 100.309V100.722H29.0996ZM27.8599 98.6558C28.2983 98.6558 28.7187 98.8299 29.0287 99.1399C29.3387 99.4499 29.5128 99.8703 29.5128 100.309V101.135H26.207V100.309C26.207 99.8703 26.3812 99.4499 26.6912 99.1399C27.0011 98.8299 27.4215 98.6558 27.8599 98.6558Z" fill="white"/>
</g>
<path opacity="0.68" d="M34.9821 103.047V98.84H37.5214V99.292H35.4916V100.714H37.3899V101.166H35.4916V102.595H37.5542V103.047H34.9821ZM38.6951 101.149V103.047H38.2103V99.8918H38.6787V100.385H38.7198C38.7937 100.225 38.906 100.096 39.0567 99.9987C39.2073 99.9001 39.4018 99.8508 39.6401 99.8508C39.8538 99.8508 40.0407 99.8946 40.201 99.9822C40.3612 100.069 40.4858 100.2 40.5749 100.377C40.6639 100.552 40.7084 100.774 40.7084 101.042V103.047H40.2236V101.075C40.2236 100.827 40.1592 100.634 40.0305 100.496C39.9017 100.356 39.725 100.286 39.5004 100.286C39.3457 100.286 39.2073 100.32 39.0854 100.387C38.9649 100.454 38.8697 100.552 38.7999 100.681C38.73 100.809 38.6951 100.966 38.6951 101.149ZM42.803 99.8918V100.303H41.1678V99.8918H42.803ZM41.6444 99.1358H42.1292V102.143C42.1292 102.28 42.1491 102.383 42.1888 102.452C42.2299 102.519 42.2819 102.564 42.3449 102.587C42.4093 102.609 42.4771 102.62 42.5483 102.62C42.6017 102.62 42.6455 102.617 42.6798 102.612C42.714 102.605 42.7414 102.6 42.762 102.595L42.8606 103.031C42.8277 103.043 42.7818 103.056 42.7229 103.068C42.664 103.082 42.5894 103.088 42.499 103.088C42.362 103.088 42.2278 103.059 42.0963 103C41.9662 102.941 41.858 102.852 41.7717 102.731C41.6868 102.61 41.6444 102.458 41.6444 102.275V99.1358ZM44.6578 103.113C44.3538 103.113 44.0915 103.046 43.871 102.912C43.6519 102.776 43.4827 102.587 43.3636 102.345C43.2458 102.101 43.1869 101.817 43.1869 101.494C43.1869 101.171 43.2458 100.886 43.3636 100.64C43.4827 100.392 43.6484 100.199 43.8607 100.06C44.0744 99.9206 44.3236 99.8508 44.6085 99.8508C44.7729 99.8508 44.9352 99.8781 45.0954 99.9329C45.2557 99.9877 45.4015 100.077 45.533 100.2C45.6645 100.322 45.7692 100.484 45.8473 100.685C45.9254 100.886 45.9644 101.134 45.9644 101.429V101.634H43.532V101.215H45.4714C45.4714 101.037 45.4358 100.878 45.3645 100.738C45.2947 100.599 45.1947 100.488 45.0646 100.407C44.9359 100.327 44.7838 100.286 44.6085 100.286C44.4154 100.286 44.2483 100.334 44.1073 100.43C43.9676 100.525 43.86 100.648 43.7847 100.8C43.7094 100.952 43.6717 101.115 43.6717 101.289V101.568C43.6717 101.807 43.7128 102.009 43.795 102.174C43.8785 102.339 43.9943 102.464 44.1422 102.55C44.2901 102.635 44.462 102.678 44.6578 102.678C44.7852 102.678 44.9002 102.66 45.003 102.624C45.1071 102.587 45.1968 102.532 45.2721 102.46C45.3474 102.386 45.4056 102.294 45.4467 102.185L45.9151 102.316C45.8658 102.475 45.7829 102.615 45.6665 102.735C45.5501 102.854 45.4063 102.947 45.2351 103.014C45.0639 103.08 44.8715 103.113 44.6578 103.113ZM46.5383 103.047V99.8918H47.0067V100.368H47.0396C47.0971 100.212 47.2012 100.086 47.3518 99.9884C47.5025 99.8912 47.6723 99.8425 47.8613 99.8425C47.8969 99.8425 47.9414 99.8432 47.9948 99.8446C48.0483 99.846 48.0887 99.848 48.1161 99.8508V100.344C48.0996 100.34 48.062 100.334 48.0031 100.325C47.9455 100.316 47.8846 100.311 47.8202 100.311C47.6668 100.311 47.5299 100.343 47.4093 100.407C47.2902 100.47 47.1957 100.558 47.1258 100.67C47.0574 100.781 47.0231 100.908 47.0231 101.051V103.047H46.5383ZM50.3028 104.231C50.2207 104.231 50.1474 104.224 50.083 104.21C50.0186 104.198 49.9741 104.185 49.9495 104.173L50.0727 103.746C50.1905 103.776 50.2946 103.787 50.385 103.779C50.4754 103.771 50.5555 103.73 50.6254 103.658C50.6966 103.586 50.7616 103.471 50.8205 103.31L50.9109 103.064L49.744 99.8918H50.27L51.141 102.406H51.1739L52.0449 99.8918H52.5709L51.2314 103.508C51.1711 103.671 51.0965 103.805 51.0075 103.912C50.9185 104.02 50.8151 104.101 50.6973 104.153C50.5809 104.205 50.4494 104.231 50.3028 104.231ZM54.2161 103.113C53.9312 103.113 53.6813 103.045 53.4663 102.91C53.2526 102.774 53.0855 102.584 52.965 102.341C52.8458 102.097 52.7863 101.812 52.7863 101.486C52.7863 101.157 52.8458 100.87 52.965 100.625C53.0855 100.38 53.2526 100.19 53.4663 100.054C53.6813 99.9185 53.9312 99.8508 54.2161 99.8508C54.501 99.8508 54.7502 99.9185 54.9639 100.054C55.1789 100.19 55.346 100.38 55.4652 100.625C55.5857 100.87 55.6459 101.157 55.6459 101.486C55.6459 101.812 55.5857 102.097 55.4652 102.341C55.346 102.584 55.1789 102.774 54.9639 102.91C54.7502 103.045 54.501 103.113 54.2161 103.113ZM54.2161 102.678C54.4325 102.678 54.6105 102.622 54.7502 102.511C54.8899 102.4 54.9933 102.254 55.0604 102.074C55.1276 101.893 55.1611 101.697 55.1611 101.486C55.1611 101.275 55.1276 101.079 55.0604 100.896C54.9933 100.714 54.8899 100.567 54.7502 100.455C54.6105 100.342 54.4325 100.286 54.2161 100.286C53.9997 100.286 53.8217 100.342 53.682 100.455C53.5423 100.567 53.4389 100.714 53.3718 100.896C53.3046 101.079 53.2711 101.275 53.2711 101.486C53.2711 101.697 53.3046 101.893 53.3718 102.074C53.4389 102.254 53.5423 102.4 53.682 102.511C53.8217 102.622 53.9997 102.678 54.2161 102.678ZM58.211 101.757V99.8918H58.6959V103.047H58.211V102.513H58.1782C58.1042 102.673 57.9892 102.81 57.833 102.922C57.6769 103.033 57.4797 103.088 57.2414 103.088C57.0441 103.088 56.8688 103.045 56.7154 102.959C56.5621 102.871 56.4415 102.74 56.3539 102.565C56.2662 102.388 56.2224 102.165 56.2224 101.897V99.8918H56.7072V101.864C56.7072 102.094 56.7716 102.278 56.9003 102.415C57.0305 102.552 57.1962 102.62 57.3975 102.62C57.518 102.62 57.6406 102.589 57.7652 102.528C57.8912 102.466 57.9967 102.371 58.0816 102.244C58.1679 102.117 58.211 101.954 58.211 101.757ZM59.4202 103.047V99.8918H59.8886V100.368H59.9215C59.979 100.212 60.0831 100.086 60.2338 99.9884C60.3844 99.8912 60.5543 99.8425 60.7433 99.8425C60.7789 99.8425 60.8234 99.8432 60.8768 99.8446C60.9302 99.846 60.9706 99.848 60.998 99.8508V100.344C60.9816 100.34 60.9439 100.334 60.885 100.325C60.8275 100.316 60.7665 100.311 60.7022 100.311C60.5488 100.311 60.4118 100.343 60.2913 100.407C60.1721 100.47 60.0776 100.558 60.0078 100.67C59.9393 100.781 59.9051 100.908 59.9051 101.051V103.047H59.4202ZM62.9382 103.047V98.84H64.3599C64.6899 98.84 64.9597 98.8996 65.1693 99.0187C65.3802 99.1365 65.5363 99.2961 65.6377 99.4974C65.739 99.6987 65.7897 99.9233 65.7897 100.171C65.7897 100.419 65.739 100.644 65.6377 100.847C65.5377 101.05 65.3829 101.211 65.1734 101.332C64.9639 101.451 64.6954 101.511 64.3681 101.511H63.3491V101.059H64.3517C64.5776 101.059 64.7591 101.02 64.8961 100.942C65.033 100.864 65.1323 100.758 65.1939 100.625C65.2569 100.491 65.2884 100.34 65.2884 100.171C65.2884 100.003 65.2569 99.8521 65.1939 99.7193C65.1323 99.5864 65.0323 99.4823 64.894 99.407C64.7557 99.3303 64.5722 99.292 64.3434 99.292H63.4477V103.047H62.9382ZM67.3096 103.121C67.1097 103.121 66.9282 103.084 66.7652 103.008C66.6022 102.932 66.4728 102.821 66.377 102.678C66.2811 102.532 66.2331 102.357 66.2331 102.152C66.2331 101.971 66.2688 101.824 66.34 101.712C66.4112 101.598 66.5064 101.509 66.6255 101.445C66.7447 101.381 66.8762 101.333 67.02 101.301C67.1651 101.268 67.311 101.242 67.4576 101.223C67.6493 101.198 67.8047 101.18 67.9239 101.168C68.0444 101.154 68.1321 101.131 68.1869 101.1C68.243 101.068 68.2711 101.014 68.2711 100.935V100.919C68.2711 100.716 68.2156 100.559 68.1047 100.447C67.9951 100.334 67.8287 100.278 67.6055 100.278C67.374 100.278 67.1925 100.329 67.0611 100.43C66.9296 100.531 66.8371 100.64 66.7837 100.755L66.3235 100.59C66.4057 100.399 66.5153 100.249 66.6522 100.142C66.7906 100.034 66.9412 99.959 67.1042 99.9165C67.2686 99.8727 67.4302 99.8508 67.589 99.8508C67.6904 99.8508 67.8068 99.8631 67.9383 99.8877C68.0711 99.911 68.1992 99.9596 68.3224 100.034C68.4471 100.108 68.5505 100.219 68.6327 100.368C68.7148 100.518 68.7559 100.718 68.7559 100.968V103.047H68.2711V102.62H68.2464C68.2136 102.689 68.1588 102.762 68.0821 102.84C68.0054 102.918 67.9034 102.984 67.776 103.039C67.6486 103.094 67.4932 103.121 67.3096 103.121ZM67.3836 102.686C67.5753 102.686 67.737 102.648 67.8684 102.573C68.0013 102.497 68.1013 102.4 68.1684 102.281C68.2368 102.162 68.2711 102.037 68.2711 101.905V101.461C68.2505 101.486 68.2053 101.509 68.1355 101.529C68.067 101.548 67.9876 101.565 67.8972 101.581C67.8082 101.594 67.7212 101.607 67.6363 101.618C67.5527 101.627 67.4849 101.635 67.4329 101.642C67.3069 101.659 67.1891 101.685 67.0796 101.722C66.9714 101.758 66.8837 101.812 66.8166 101.885C66.7508 101.956 66.718 102.053 66.718 102.176C66.718 102.345 66.7803 102.472 66.9049 102.558C67.0309 102.643 67.1905 102.686 67.3836 102.686ZM71.7124 100.599L71.2768 100.722C71.2494 100.649 71.209 100.579 71.1556 100.51C71.1036 100.44 71.0324 100.383 70.942 100.338C70.8516 100.292 70.7359 100.27 70.5948 100.27C70.4017 100.27 70.2408 100.314 70.112 100.403C69.9846 100.491 69.921 100.603 69.921 100.738C69.921 100.859 69.9648 100.954 70.0524 101.024C70.1401 101.094 70.277 101.152 70.4633 101.198L70.9317 101.313C71.2138 101.382 71.4241 101.487 71.5624 101.628C71.7007 101.767 71.7699 101.948 71.7699 102.168C71.7699 102.349 71.7178 102.51 71.6138 102.653C71.511 102.795 71.3672 102.908 71.1823 102.99C70.9974 103.072 70.7824 103.113 70.5373 103.113C70.2154 103.113 69.949 103.043 69.7381 102.904C69.5272 102.764 69.3937 102.56 69.3375 102.291L69.7977 102.176C69.8415 102.346 69.9244 102.474 70.0463 102.558C70.1695 102.643 70.3305 102.686 70.529 102.686C70.755 102.686 70.9344 102.638 71.0673 102.542C71.2015 102.445 71.2686 102.328 71.2686 102.193C71.2686 102.083 71.2303 101.991 71.1536 101.917C71.0769 101.842 70.9591 101.786 70.8002 101.749L70.2743 101.626C69.9853 101.557 69.773 101.451 69.6374 101.307C69.5032 101.162 69.4361 100.981 69.4361 100.763C69.4361 100.585 69.4861 100.427 69.5861 100.29C69.6874 100.153 69.8251 100.046 69.999 99.9679C70.1743 99.8898 70.3729 99.8508 70.5948 99.8508C70.9071 99.8508 71.1522 99.9192 71.3303 100.056C71.5097 100.193 71.637 100.374 71.7124 100.599ZM74.5712 100.599L74.1357 100.722C74.1083 100.649 74.0679 100.579 74.0145 100.51C73.9625 100.44 73.8912 100.383 73.8008 100.338C73.7104 100.292 73.5947 100.27 73.4537 100.27C73.2605 100.27 73.0996 100.314 72.9709 100.403C72.8435 100.491 72.7798 100.603 72.7798 100.738C72.7798 100.859 72.8236 100.954 72.9113 101.024C72.999 101.094 73.1359 101.152 73.3222 101.198L73.7906 101.313C74.0727 101.382 74.2829 101.487 74.4213 101.628C74.5596 101.767 74.6288 101.948 74.6288 102.168C74.6288 102.349 74.5767 102.51 74.4726 102.653C74.3699 102.795 74.2261 102.908 74.0412 102.99C73.8563 103.072 73.6413 103.113 73.3961 103.113C73.0743 103.113 72.8079 103.043 72.597 102.904C72.3861 102.764 72.2525 102.56 72.1964 102.291L72.6566 102.176C72.7004 102.346 72.7832 102.474 72.9051 102.558C73.0284 102.643 73.1893 102.686 73.3879 102.686C73.6139 102.686 73.7933 102.638 73.9262 102.542C74.0604 102.445 74.1275 102.328 74.1275 102.193C74.1275 102.083 74.0891 101.991 74.0124 101.917C73.9357 101.842 73.818 101.786 73.6591 101.749L73.1332 101.626C72.8442 101.557 72.6319 101.451 72.4963 101.307C72.3621 101.162 72.295 100.981 72.295 100.763C72.295 100.585 72.345 100.427 72.445 100.29C72.5463 100.153 72.6839 100.046 72.8579 99.9679C73.0332 99.8898 73.2318 99.8508 73.4537 99.8508C73.7659 99.8508 74.0111 99.9192 74.1891 100.056C74.3685 100.193 74.4959 100.374 74.5712 100.599ZM75.9099 103.047L74.9484 99.8918H75.4579L76.1399 102.308H76.1728L76.8467 99.8918H77.3644L78.03 102.3H78.0628L78.7449 99.8918H79.2544L78.2929 103.047H77.8163L77.126 100.623H77.0767L76.3865 103.047H75.9099ZM80.9063 103.113C80.6214 103.113 80.3715 103.045 80.1565 102.91C79.9428 102.774 79.7757 102.584 79.6552 102.341C79.536 102.097 79.4765 101.812 79.4765 101.486C79.4765 101.157 79.536 100.87 79.6552 100.625C79.7757 100.38 79.9428 100.19 80.1565 100.054C80.3715 99.9185 80.6214 99.8508 80.9063 99.8508C81.1912 99.8508 81.4404 99.9185 81.6541 100.054C81.8691 100.19 82.0362 100.38 82.1554 100.625C82.2759 100.87 82.3361 101.157 82.3361 101.486C82.3361 101.812 82.2759 102.097 82.1554 102.341C82.0362 102.584 81.8691 102.774 81.6541 102.91C81.4404 103.045 81.1912 103.113 80.9063 103.113ZM80.9063 102.678C81.1227 102.678 81.3007 102.622 81.4404 102.511C81.5801 102.4 81.6835 102.254 81.7507 102.074C81.8178 101.893 81.8513 101.697 81.8513 101.486C81.8513 101.275 81.8178 101.079 81.7507 100.896C81.6835 100.714 81.5801 100.567 81.4404 100.455C81.3007 100.342 81.1227 100.286 80.9063 100.286C80.6899 100.286 80.5119 100.342 80.3722 100.455C80.2325 100.567 80.1291 100.714 80.062 100.896C79.9948 101.079 79.9613 101.275 79.9613 101.486C79.9613 101.697 79.9948 101.893 80.062 102.074C80.1291 102.254 80.2325 102.4 80.3722 102.511C80.5119 102.622 80.6899 102.678 80.9063 102.678ZM82.9126 103.047V99.8918H83.381V100.368H83.4139C83.4714 100.212 83.5755 100.086 83.7261 99.9884C83.8768 99.8912 84.0466 99.8425 84.2356 99.8425C84.2712 99.8425 84.3157 99.8432 84.3692 99.8446C84.4226 99.846 84.463 99.848 84.4904 99.8508V100.344C84.4739 100.34 84.4363 100.334 84.3774 100.325C84.3198 100.316 84.2589 100.311 84.1945 100.311C84.0411 100.311 83.9042 100.343 83.7837 100.407C83.6645 100.47 83.57 100.558 83.5001 100.67C83.4317 100.781 83.3974 100.908 83.3974 101.051V103.047H82.9126ZM85.9969 103.113C85.734 103.113 85.5018 103.047 85.3005 102.914C85.0992 102.78 84.9417 102.591 84.828 102.347C84.7143 102.102 84.6575 101.812 84.6575 101.478C84.6575 101.146 84.7143 100.859 84.828 100.615C84.9417 100.371 85.0999 100.183 85.3026 100.05C85.5053 99.9172 85.7395 99.8508 86.0051 99.8508C86.2106 99.8508 86.3729 99.885 86.492 99.9535C86.6126 100.021 86.7043 100.097 86.7673 100.184C86.8317 100.268 86.8817 100.338 86.9173 100.393H86.9584V98.84H87.4432V103.047H86.9748V102.563H86.9173C86.8817 102.62 86.831 102.693 86.7653 102.78C86.6995 102.867 86.6057 102.944 86.4838 103.012C86.3619 103.08 86.1996 103.113 85.9969 103.113ZM86.0627 102.678C86.2572 102.678 86.4215 102.627 86.5557 102.526C86.6899 102.423 86.792 102.281 86.8618 102.1C86.9317 101.918 86.9666 101.708 86.9666 101.47C86.9666 101.234 86.9324 101.028 86.8639 100.851C86.7954 100.673 86.6941 100.535 86.5598 100.436C86.4256 100.336 86.2599 100.286 86.0627 100.286C85.8572 100.286 85.686 100.339 85.5491 100.444C85.4135 100.549 85.3115 100.69 85.243 100.87C85.1759 101.048 85.1423 101.248 85.1423 101.47C85.1423 101.694 85.1766 101.898 85.245 102.082C85.3149 102.264 85.4176 102.409 85.5532 102.517C85.6901 102.624 85.86 102.678 86.0627 102.678Z" fill="white"/>
<path opacity="0.68" d="M132.645 119.77V115.563H135.341V116.202H133.408V117.344H135.156V117.983H133.408V119.77H132.645ZM137.147 119.832C136.839 119.832 136.572 119.764 136.346 119.628C136.12 119.493 135.945 119.303 135.82 119.059C135.697 118.815 135.635 118.531 135.635 118.205C135.635 117.879 135.697 117.593 135.82 117.348C135.945 117.103 136.12 116.912 136.346 116.777C136.572 116.641 136.839 116.573 137.147 116.573C137.455 116.573 137.722 116.641 137.948 116.777C138.174 116.912 138.349 117.103 138.472 117.348C138.597 117.593 138.659 117.879 138.659 118.205C138.659 118.531 138.597 118.815 138.472 119.059C138.349 119.303 138.174 119.493 137.948 119.628C137.722 119.764 137.455 119.832 137.147 119.832ZM137.151 119.236C137.318 119.236 137.458 119.19 137.57 119.098C137.683 119.005 137.766 118.88 137.821 118.724C137.877 118.568 137.905 118.394 137.905 118.203C137.905 118.009 137.877 117.835 137.821 117.679C137.766 117.521 137.683 117.396 137.57 117.303C137.458 117.21 137.318 117.163 137.151 117.163C136.98 117.163 136.838 117.21 136.724 117.303C136.612 117.396 136.527 117.521 136.471 117.679C136.416 117.835 136.389 118.009 136.389 118.203C136.389 118.394 136.416 118.568 136.471 118.724C136.527 118.88 136.612 119.005 136.724 119.098C136.838 119.19 136.98 119.236 137.151 119.236ZM139.29 119.77V116.614H140.011V117.14H140.044C140.102 116.958 140.2 116.818 140.34 116.719C140.481 116.619 140.642 116.569 140.823 116.569C140.864 116.569 140.91 116.571 140.961 116.575C141.013 116.578 141.056 116.583 141.09 116.59V117.274C141.058 117.263 141.008 117.253 140.94 117.245C140.873 117.236 140.808 117.231 140.745 117.231C140.609 117.231 140.487 117.26 140.379 117.319C140.272 117.377 140.188 117.457 140.126 117.56C140.065 117.662 140.034 117.781 140.034 117.915V119.77H139.29ZM142.826 121.019C142.559 121.019 142.33 120.983 142.138 120.91C141.946 120.839 141.792 120.743 141.676 120.623C141.56 120.502 141.479 120.369 141.434 120.222L142.103 120.06C142.133 120.121 142.177 120.182 142.235 120.243C142.292 120.304 142.37 120.355 142.467 120.395C142.566 120.436 142.689 120.456 142.839 120.456C143.05 120.456 143.224 120.405 143.363 120.302C143.501 120.201 143.57 120.034 143.57 119.801V119.203H143.533C143.495 119.28 143.439 119.358 143.365 119.439C143.292 119.52 143.196 119.588 143.075 119.643C142.956 119.697 142.806 119.725 142.625 119.725C142.383 119.725 142.163 119.668 141.966 119.554C141.77 119.439 141.614 119.268 141.497 119.041C141.382 118.812 141.325 118.526 141.325 118.182C141.325 117.835 141.382 117.543 141.497 117.305C141.614 117.065 141.77 116.884 141.968 116.76C142.165 116.636 142.385 116.573 142.627 116.573C142.812 116.573 142.964 116.605 143.083 116.668C143.204 116.73 143.3 116.804 143.371 116.892C143.442 116.978 143.496 117.06 143.533 117.136H143.574V116.614H144.308V119.821C144.308 120.091 144.243 120.314 144.115 120.491C143.986 120.668 143.81 120.8 143.587 120.888C143.363 120.975 143.11 121.019 142.826 121.019ZM142.833 119.141C142.99 119.141 143.124 119.103 143.235 119.026C143.346 118.95 143.43 118.839 143.488 118.696C143.545 118.552 143.574 118.379 143.574 118.178C143.574 117.979 143.545 117.805 143.488 117.656C143.432 117.507 143.348 117.391 143.237 117.309C143.128 117.225 142.993 117.184 142.833 117.184C142.667 117.184 142.529 117.227 142.418 117.313C142.307 117.399 142.223 117.518 142.167 117.668C142.111 117.818 142.083 117.988 142.083 118.178C142.083 118.371 142.111 118.54 142.167 118.685C142.224 118.829 142.309 118.941 142.42 119.022C142.532 119.102 142.67 119.141 142.833 119.141ZM146.467 119.832C146.15 119.832 145.877 119.766 145.647 119.634C145.418 119.502 145.242 119.314 145.119 119.072C144.996 118.828 144.934 118.541 144.934 118.211C144.934 117.886 144.996 117.601 145.119 117.356C145.244 117.11 145.418 116.918 145.641 116.781C145.864 116.643 146.126 116.573 146.428 116.573C146.622 116.573 146.806 116.605 146.978 116.668C147.152 116.73 147.306 116.825 147.439 116.956C147.573 117.086 147.678 117.251 147.755 117.453C147.832 117.653 147.87 117.891 147.87 118.168V118.396H145.283V117.894H147.157C147.156 117.752 147.125 117.625 147.065 117.514C147.004 117.402 146.92 117.314 146.812 117.249C146.705 117.185 146.58 117.153 146.438 117.153C146.286 117.153 146.152 117.19 146.037 117.264C145.922 117.336 145.833 117.432 145.768 117.551C145.705 117.669 145.673 117.799 145.672 117.94V118.377C145.672 118.561 145.705 118.718 145.772 118.85C145.84 118.98 145.933 119.08 146.054 119.15C146.174 119.218 146.315 119.252 146.477 119.252C146.585 119.252 146.683 119.237 146.771 119.207C146.858 119.176 146.934 119.13 146.999 119.069C147.063 119.009 147.112 118.935 147.145 118.846L147.839 118.924C147.795 119.107 147.712 119.267 147.588 119.404C147.467 119.54 147.31 119.645 147.12 119.721C146.93 119.795 146.712 119.832 146.467 119.832ZM150.075 116.614V117.19H148.261V116.614H150.075ZM148.709 115.858H149.452V118.821C149.452 118.921 149.467 118.998 149.498 119.051C149.529 119.103 149.57 119.139 149.621 119.158C149.671 119.177 149.728 119.187 149.789 119.187C149.836 119.187 149.878 119.183 149.917 119.176C149.956 119.169 149.986 119.163 150.007 119.158L150.132 119.739C150.093 119.753 150.036 119.768 149.962 119.784C149.889 119.801 149.8 119.81 149.695 119.813C149.508 119.819 149.341 119.791 149.191 119.729C149.042 119.666 148.924 119.569 148.836 119.437C148.75 119.306 148.707 119.141 148.709 118.944V115.858ZM152.132 120.953V116.614H152.863V117.136H152.906C152.945 117.06 152.999 116.978 153.069 116.892C153.138 116.804 153.233 116.73 153.352 116.668C153.471 116.605 153.623 116.573 153.808 116.573C154.052 116.573 154.272 116.636 154.468 116.76C154.665 116.884 154.821 117.066 154.936 117.309C155.052 117.55 155.111 117.846 155.111 118.196C155.111 118.543 155.054 118.837 154.94 119.08C154.826 119.322 154.672 119.507 154.476 119.634C154.28 119.762 154.058 119.825 153.81 119.825C153.629 119.825 153.479 119.795 153.36 119.735C153.241 119.675 153.145 119.602 153.073 119.517C153.001 119.431 152.946 119.35 152.906 119.273H152.875V120.953H152.132ZM152.861 118.192C152.861 118.396 152.89 118.575 152.947 118.728C153.006 118.882 153.09 119.002 153.2 119.088C153.311 119.173 153.445 119.215 153.603 119.215C153.767 119.215 153.905 119.172 154.016 119.084C154.127 118.995 154.21 118.874 154.266 118.72C154.324 118.565 154.353 118.389 154.353 118.192C154.353 117.996 154.324 117.822 154.268 117.67C154.212 117.518 154.129 117.399 154.018 117.313C153.907 117.227 153.768 117.184 153.603 117.184C153.444 117.184 153.309 117.225 153.198 117.309C153.087 117.392 153.003 117.51 152.945 117.66C152.889 117.811 152.861 117.988 152.861 118.192ZM156.655 119.834C156.456 119.834 156.275 119.798 156.115 119.727C155.956 119.654 155.83 119.547 155.737 119.406C155.645 119.265 155.6 119.091 155.6 118.885C155.6 118.707 155.632 118.559 155.698 118.443C155.764 118.326 155.854 118.233 155.967 118.163C156.081 118.094 156.209 118.041 156.351 118.005C156.495 117.968 156.644 117.942 156.797 117.925C156.982 117.906 157.132 117.889 157.247 117.874C157.362 117.857 157.446 117.833 157.498 117.8C157.551 117.766 157.578 117.713 157.578 117.642V117.629C157.578 117.475 157.532 117.355 157.44 117.27C157.348 117.185 157.216 117.142 157.044 117.142C156.862 117.142 156.717 117.182 156.61 117.262C156.505 117.341 156.434 117.435 156.397 117.543L155.702 117.444C155.757 117.253 155.847 117.092 155.973 116.964C156.099 116.834 156.253 116.736 156.436 116.672C156.618 116.606 156.819 116.573 157.04 116.573C157.192 116.573 157.343 116.591 157.494 116.627C157.644 116.662 157.782 116.721 157.907 116.804C158.031 116.884 158.131 116.995 158.207 117.134C158.283 117.274 158.322 117.449 158.322 117.658V119.77H157.607V119.337H157.582C157.537 119.424 157.473 119.506 157.391 119.583C157.31 119.658 157.208 119.719 157.085 119.766C156.963 119.811 156.82 119.834 156.655 119.834ZM156.849 119.287C156.998 119.287 157.127 119.258 157.237 119.199C157.346 119.139 157.431 119.059 157.49 118.961C157.55 118.862 157.58 118.754 157.58 118.638V118.266C157.557 118.285 157.517 118.303 157.461 118.32C157.406 118.336 157.344 118.35 157.276 118.363C157.207 118.375 157.14 118.386 157.072 118.396C157.005 118.405 156.947 118.413 156.898 118.42C156.787 118.435 156.688 118.46 156.6 118.494C156.512 118.528 156.443 118.576 156.393 118.638C156.342 118.698 156.316 118.776 156.316 118.872C156.316 119.009 156.366 119.113 156.466 119.182C156.566 119.252 156.694 119.287 156.849 119.287ZM161.563 117.449L160.885 117.523C160.866 117.454 160.833 117.39 160.785 117.329C160.738 117.269 160.675 117.221 160.596 117.184C160.516 117.147 160.419 117.128 160.304 117.128C160.149 117.128 160.019 117.162 159.914 117.229C159.81 117.296 159.758 117.383 159.76 117.49C159.758 117.581 159.792 117.656 159.86 117.714C159.93 117.771 160.045 117.818 160.205 117.855L160.744 117.97C161.042 118.035 161.264 118.137 161.409 118.276C161.556 118.416 161.63 118.599 161.631 118.825C161.63 119.024 161.572 119.199 161.457 119.351C161.343 119.502 161.185 119.619 160.982 119.704C160.779 119.789 160.546 119.832 160.283 119.832C159.897 119.832 159.586 119.751 159.351 119.589C159.115 119.426 158.975 119.2 158.93 118.909L159.655 118.839C159.688 118.982 159.758 119.089 159.864 119.162C159.971 119.235 160.11 119.271 160.281 119.271C160.458 119.271 160.6 119.235 160.707 119.162C160.815 119.089 160.869 119 160.869 118.893C160.869 118.802 160.834 118.728 160.764 118.669C160.696 118.61 160.589 118.565 160.444 118.533L159.905 118.42C159.603 118.357 159.379 118.251 159.234 118.102C159.089 117.951 159.017 117.761 159.018 117.531C159.017 117.336 159.069 117.168 159.176 117.025C159.284 116.882 159.434 116.771 159.626 116.693C159.819 116.613 160.042 116.573 160.294 116.573C160.664 116.573 160.955 116.652 161.167 116.81C161.381 116.967 161.513 117.18 161.563 117.449ZM164.738 117.449L164.06 117.523C164.041 117.454 164.008 117.39 163.96 117.329C163.913 117.269 163.85 117.221 163.771 117.184C163.691 117.147 163.594 117.128 163.479 117.128C163.324 117.128 163.194 117.162 163.089 117.229C162.985 117.296 162.933 117.383 162.935 117.49C162.933 117.581 162.967 117.656 163.035 117.714C163.105 117.771 163.22 117.818 163.38 117.855L163.919 117.97C164.217 118.035 164.439 118.137 164.584 118.276C164.731 118.416 164.805 118.599 164.806 118.825C164.805 119.024 164.747 119.199 164.632 119.351C164.518 119.502 164.36 119.619 164.157 119.704C163.954 119.789 163.721 119.832 163.459 119.832C163.072 119.832 162.761 119.751 162.526 119.589C162.29 119.426 162.15 119.2 162.105 118.909L162.83 118.839C162.863 118.982 162.933 119.089 163.039 119.162C163.146 119.235 163.285 119.271 163.456 119.271C163.633 119.271 163.775 119.235 163.882 119.162C163.99 119.089 164.044 119 164.044 118.893C164.044 118.802 164.009 118.728 163.939 118.669C163.871 118.61 163.764 118.565 163.619 118.533L163.081 118.42C162.778 118.357 162.554 118.251 162.409 118.102C162.264 117.951 162.192 117.761 162.193 117.531C162.192 117.336 162.244 117.168 162.351 117.025C162.459 116.882 162.609 116.771 162.801 116.693C162.994 116.613 163.217 116.573 163.469 116.573C163.839 116.573 164.13 116.652 164.342 116.81C164.556 116.967 164.688 117.18 164.738 117.449ZM166.071 119.77L165.179 116.614H165.937L166.492 118.833H166.521L167.088 116.614H167.837L168.404 118.821H168.435L168.982 116.614H169.742L168.848 119.77H168.074L167.482 117.638H167.439L166.847 119.77H166.071ZM171.547 119.832C171.239 119.832 170.972 119.764 170.746 119.628C170.52 119.493 170.345 119.303 170.22 119.059C170.097 118.815 170.035 118.531 170.035 118.205C170.035 117.879 170.097 117.593 170.22 117.348C170.345 117.103 170.52 116.912 170.746 116.777C170.972 116.641 171.239 116.573 171.547 116.573C171.855 116.573 172.122 116.641 172.348 116.777C172.574 116.912 172.749 117.103 172.872 117.348C172.997 117.593 173.059 117.879 173.059 118.205C173.059 118.531 172.997 118.815 172.872 119.059C172.749 119.303 172.574 119.493 172.348 119.628C172.122 119.764 171.855 119.832 171.547 119.832ZM171.551 119.236C171.718 119.236 171.858 119.19 171.97 119.098C172.083 119.005 172.166 118.88 172.221 118.724C172.277 118.568 172.305 118.394 172.305 118.203C172.305 118.009 172.277 117.835 172.221 117.679C172.166 117.521 172.083 117.396 171.97 117.303C171.858 117.21 171.718 117.163 171.551 117.163C171.38 117.163 171.238 117.21 171.124 117.303C171.012 117.396 170.927 117.521 170.871 117.679C170.816 117.835 170.789 118.009 170.789 118.203C170.789 118.394 170.816 118.568 170.871 118.724C170.927 118.88 171.012 119.005 171.124 119.098C171.238 119.19 171.38 119.236 171.551 119.236ZM173.69 119.77V116.614H174.411V117.14H174.444C174.502 116.958 174.6 116.818 174.74 116.719C174.881 116.619 175.042 116.569 175.223 116.569C175.264 116.569 175.31 116.571 175.361 116.575C175.413 116.578 175.456 116.583 175.49 116.59V117.274C175.458 117.263 175.408 117.253 175.34 117.245C175.273 117.236 175.208 117.231 175.145 117.231C175.009 117.231 174.887 117.26 174.779 117.319C174.672 117.377 174.588 117.457 174.526 117.56C174.465 117.662 174.434 117.781 174.434 117.915V119.77H173.69ZM177.025 119.825C176.777 119.825 176.555 119.762 176.359 119.634C176.164 119.507 176.009 119.322 175.895 119.08C175.782 118.837 175.725 118.543 175.725 118.196C175.725 117.846 175.782 117.55 175.897 117.309C176.014 117.066 176.17 116.884 176.368 116.76C176.565 116.636 176.785 116.573 177.027 116.573C177.212 116.573 177.364 116.605 177.483 116.668C177.602 116.73 177.697 116.804 177.767 116.892C177.837 116.978 177.891 117.06 177.929 117.136H177.96V115.563H178.706V119.77H177.974V119.273H177.929C177.891 119.35 177.835 119.431 177.763 119.517C177.69 119.602 177.594 119.675 177.475 119.735C177.356 119.795 177.206 119.825 177.025 119.825ZM177.233 119.215C177.39 119.215 177.524 119.173 177.635 119.088C177.746 119.002 177.83 118.882 177.888 118.728C177.945 118.575 177.974 118.396 177.974 118.192C177.974 117.988 177.945 117.811 177.888 117.66C177.832 117.51 177.748 117.392 177.637 117.309C177.528 117.225 177.393 117.184 177.233 117.184C177.067 117.184 176.929 117.227 176.818 117.313C176.707 117.399 176.623 117.518 176.567 117.67C176.511 117.822 176.483 117.996 176.483 118.192C176.483 118.389 176.511 118.565 176.567 118.72C176.625 118.874 176.709 118.995 176.82 119.084C176.932 119.172 177.07 119.215 177.233 119.215ZM180.209 118.533V118.48C180.21 118.232 180.234 118.035 180.279 117.888C180.325 117.742 180.391 117.624 180.476 117.535C180.561 117.444 180.664 117.362 180.786 117.286C180.87 117.234 180.944 117.177 181.01 117.116C181.077 117.053 181.13 116.983 181.168 116.906C181.207 116.828 181.226 116.741 181.226 116.645C181.226 116.537 181.2 116.443 181.15 116.364C181.099 116.284 181.031 116.223 180.944 116.179C180.859 116.135 180.764 116.113 180.659 116.113C180.562 116.113 180.469 116.134 180.381 116.177C180.295 116.218 180.223 116.281 180.166 116.366C180.11 116.449 180.078 116.556 180.071 116.684H179.34C179.347 116.424 179.41 116.206 179.529 116.031C179.649 115.856 179.808 115.724 180.006 115.637C180.204 115.549 180.423 115.505 180.663 115.505C180.924 115.505 181.155 115.551 181.353 115.643C181.553 115.735 181.709 115.865 181.82 116.035C181.932 116.204 181.988 116.404 181.988 116.635C181.988 116.791 181.963 116.931 181.912 117.054C181.863 117.177 181.792 117.287 181.7 117.383C181.609 117.479 181.5 117.564 181.374 117.64C181.263 117.708 181.172 117.779 181.1 117.853C181.031 117.927 180.979 118.014 180.944 118.114C180.911 118.213 180.894 118.335 180.893 118.48V118.533H180.209ZM180.566 119.815C180.443 119.815 180.337 119.771 180.248 119.684C180.159 119.596 180.114 119.489 180.114 119.363C180.114 119.24 180.159 119.135 180.248 119.047C180.337 118.959 180.443 118.915 180.566 118.915C180.688 118.915 180.794 118.959 180.883 119.047C180.973 119.135 181.018 119.24 181.018 119.363C181.018 119.447 180.997 119.523 180.955 119.591C180.914 119.66 180.859 119.715 180.79 119.756C180.723 119.795 180.649 119.815 180.566 119.815Z" fill="white"/>
<rect x="17.9414" y="131.687" width="165.289" height="18.1818" rx="3.30578" fill="#648A3A"/>
<path d="M91.2982 140.458H90.4201C90.395 140.314 90.3489 140.187 90.2816 140.076C90.2143 139.963 90.1305 139.867 90.0303 139.789C89.9302 139.711 89.8159 139.652 89.6876 139.613C89.5608 139.572 89.4238 139.552 89.2767 139.552C89.0153 139.552 88.7836 139.618 88.5817 139.749C88.3798 139.879 88.2217 140.07 88.1074 140.322C87.9932 140.573 87.9361 140.879 87.9361 141.24C87.9361 141.608 87.9932 141.918 88.1074 142.17C88.2233 142.42 88.3814 142.61 88.5817 142.738C88.7836 142.865 89.0145 142.928 89.2743 142.928C89.4183 142.928 89.5529 142.909 89.6782 142.872C89.8049 142.833 89.9184 142.776 90.0186 142.7C90.1203 142.625 90.2057 142.533 90.2745 142.423C90.345 142.314 90.3935 142.189 90.4201 142.048L91.2982 142.052C91.2653 142.281 91.1941 142.495 91.0845 142.696C90.9765 142.896 90.8349 143.073 90.6596 143.226C90.4843 143.378 90.2792 143.497 90.0444 143.583C89.8096 143.668 89.549 143.71 89.2626 143.71C88.84 143.71 88.4628 143.612 88.1309 143.417C87.7991 143.221 87.5377 142.938 87.3467 142.569C87.1558 142.2 87.0603 141.757 87.0603 141.24C87.0603 140.722 87.1566 140.279 87.3491 139.911C87.5416 139.542 87.8038 139.259 88.1356 139.064C88.4675 138.868 88.8431 138.77 89.2626 138.77C89.5302 138.77 89.7791 138.808 90.0092 138.883C90.2393 138.958 90.4443 139.068 90.6244 139.214C90.8044 139.358 90.9523 139.535 91.0681 139.744C91.1855 139.953 91.2622 140.191 91.2982 140.458ZM93.5586 143.715C93.2065 143.715 92.9012 143.637 92.643 143.482C92.3847 143.327 92.1844 143.111 92.0419 142.832C91.9011 142.553 91.8306 142.228 91.8306 141.855C91.8306 141.483 91.9011 141.156 92.0419 140.876C92.1844 140.596 92.3847 140.378 92.643 140.223C92.9012 140.068 93.2065 139.991 93.5586 139.991C93.9108 139.991 94.216 140.068 94.4743 140.223C94.7326 140.378 94.9321 140.596 95.073 140.876C95.2154 141.156 95.2867 141.483 95.2867 141.855C95.2867 142.228 95.2154 142.553 95.073 142.832C94.9321 143.111 94.7326 143.327 94.4743 143.482C94.216 143.637 93.9108 143.715 93.5586 143.715ZM93.5633 143.034C93.7543 143.034 93.914 142.981 94.0423 142.877C94.1707 142.77 94.2661 142.628 94.3287 142.449C94.3929 142.271 94.425 142.072 94.425 141.853C94.425 141.632 94.3929 141.433 94.3287 141.254C94.2661 141.074 94.1707 140.931 94.0423 140.825C93.914 140.718 93.7543 140.665 93.5633 140.665C93.3677 140.665 93.2049 140.718 93.075 140.825C92.9466 140.931 92.8504 141.074 92.7862 141.254C92.7236 141.433 92.6923 141.632 92.6923 141.853C92.6923 142.072 92.7236 142.271 92.7862 142.449C92.8504 142.628 92.9466 142.77 93.075 142.877C93.2049 142.981 93.3677 143.034 93.5633 143.034ZM96.7852 141.531V143.644H95.9353V140.038H96.7477V140.651H96.7899C96.8729 140.449 97.0052 140.288 97.1867 140.169C97.3699 140.05 97.596 139.991 97.8653 139.991C98.1141 139.991 98.3309 140.044 98.5156 140.151C98.7019 140.257 98.8459 140.411 98.9476 140.613C99.0509 140.815 99.1018 141.06 99.1002 141.348V143.644H98.2503V141.48C98.2503 141.239 98.1877 141.05 98.0625 140.914C97.9388 140.778 97.7674 140.709 97.5483 140.709C97.3996 140.709 97.2673 140.742 97.1515 140.808C97.0372 140.872 96.9472 140.965 96.8815 141.087C96.8173 141.21 96.7852 141.357 96.7852 141.531ZM101.692 140.038V140.695H99.6192V140.038H101.692ZM100.131 139.174H100.981V142.56C100.981 142.674 100.998 142.761 101.033 142.823C101.069 142.882 101.116 142.923 101.173 142.945C101.231 142.967 101.296 142.977 101.366 142.977C101.419 142.977 101.468 142.974 101.512 142.966C101.557 142.958 101.591 142.951 101.615 142.945L101.758 143.609C101.713 143.625 101.648 143.642 101.563 143.661C101.48 143.68 101.378 143.69 101.258 143.694C101.045 143.7 100.853 143.668 100.683 143.597C100.512 143.525 100.377 143.414 100.277 143.264C100.178 143.114 100.129 142.926 100.131 142.7V139.174ZM102.33 143.644V140.038H103.18V143.644H102.33ZM102.758 139.526C102.623 139.526 102.507 139.482 102.41 139.392C102.313 139.302 102.265 139.193 102.265 139.066C102.265 138.938 102.313 138.829 102.41 138.74C102.507 138.649 102.623 138.603 102.758 138.603C102.894 138.603 103.01 138.649 103.105 138.74C103.202 138.829 103.251 138.938 103.251 139.066C103.251 139.193 103.202 139.302 103.105 139.392C103.01 139.482 102.894 139.526 102.758 139.526ZM104.832 141.531V143.644H103.982V140.038H104.794V140.651H104.836C104.919 140.449 105.051 140.288 105.233 140.169C105.416 140.05 105.642 139.991 105.912 139.991C106.16 139.991 106.377 140.044 106.562 140.151C106.748 140.257 106.892 140.411 106.994 140.613C107.097 140.815 107.148 141.06 107.147 141.348V143.644H106.297V141.48C106.297 141.239 106.234 141.05 106.109 140.914C105.985 140.778 105.814 140.709 105.595 140.709C105.446 140.709 105.314 140.742 105.198 140.808C105.084 140.872 104.994 140.965 104.928 141.087C104.864 141.21 104.832 141.357 104.832 141.531ZM110.236 142.128V140.038H111.086V143.644H110.262V143.003H110.225C110.143 143.205 110.009 143.37 109.823 143.499C109.638 143.627 109.411 143.691 109.14 143.691C108.904 143.691 108.695 143.639 108.513 143.534C108.333 143.428 108.192 143.273 108.09 143.071C107.989 142.868 107.938 142.622 107.938 142.334V140.038H108.788V142.203C108.788 142.431 108.85 142.613 108.976 142.747C109.101 142.882 109.265 142.949 109.469 142.949C109.594 142.949 109.715 142.919 109.833 142.858C109.95 142.797 110.046 142.706 110.121 142.585C110.198 142.463 110.236 142.311 110.236 142.128ZM113.484 143.715C113.123 143.715 112.81 143.64 112.547 143.489C112.286 143.338 112.085 143.123 111.944 142.846C111.803 142.567 111.733 142.239 111.733 141.862C111.733 141.491 111.803 141.166 111.944 140.886C112.086 140.604 112.285 140.385 112.54 140.228C112.795 140.07 113.095 139.991 113.439 139.991C113.662 139.991 113.871 140.027 114.069 140.099C114.267 140.169 114.443 140.279 114.595 140.428C114.748 140.576 114.869 140.766 114.956 140.996C115.044 141.224 115.088 141.497 115.088 141.813V142.074H112.132V141.501H114.273C114.271 141.338 114.236 141.193 114.167 141.066C114.098 140.938 114.002 140.837 113.879 140.763C113.756 140.69 113.614 140.653 113.451 140.653C113.277 140.653 113.125 140.695 112.993 140.78C112.862 140.863 112.759 140.972 112.686 141.109C112.614 141.243 112.577 141.391 112.575 141.552V142.052C112.575 142.262 112.614 142.442 112.691 142.592C112.767 142.741 112.874 142.855 113.012 142.935C113.15 143.013 113.311 143.053 113.496 143.053C113.619 143.053 113.731 143.035 113.832 143.001C113.932 142.965 114.019 142.913 114.092 142.844C114.166 142.775 114.221 142.689 114.259 142.588L115.052 142.677C115.002 142.887 114.907 143.07 114.766 143.226C114.627 143.381 114.448 143.502 114.231 143.588C114.013 143.672 113.764 143.715 113.484 143.715Z" fill="white"/>
<g opacity="0.5">
<line x1="17.7461" y1="162.787" x2="92.1263" y2="162.787" stroke="#868685"/>
<path opacity="0.4" d="M101.145 162.683C101.145 163.127 101.065 163.51 100.905 163.833C100.745 164.157 100.525 164.406 100.246 164.581C99.9662 164.756 99.6471 164.844 99.2882 164.844C98.9294 164.844 98.6103 164.756 98.3309 164.581C98.0515 164.406 97.8317 164.157 97.6714 163.833C97.5112 163.51 97.4311 163.127 97.4311 162.683C97.4311 162.239 97.5112 161.856 97.6714 161.532C97.8317 161.209 98.0515 160.96 98.3309 160.785C98.6103 160.609 98.9294 160.522 99.2882 160.522C99.6471 160.522 99.9662 160.609 100.246 160.785C100.525 160.96 100.745 161.209 100.905 161.532C101.065 161.856 101.145 162.239 101.145 162.683ZM100.652 162.683C100.652 162.319 100.591 162.011 100.469 161.761C100.349 161.51 100.185 161.32 99.9785 161.191C99.7731 161.063 99.543 160.998 99.2882 160.998C99.0335 160.998 98.8027 161.063 98.5959 161.191C98.3905 161.32 98.2268 161.51 98.1049 161.761C97.9844 162.011 97.9241 162.319 97.9241 162.683C97.9241 163.047 97.9844 163.355 98.1049 163.605C98.2268 163.856 98.3905 164.046 98.5959 164.174C98.8027 164.303 99.0335 164.368 99.2882 164.368C99.543 164.368 99.7731 164.303 99.9785 164.174C100.185 164.046 100.349 163.856 100.469 163.605C100.591 163.355 100.652 163.047 100.652 162.683ZM101.773 164.787V161.631H102.241V162.108H102.274C102.331 161.952 102.436 161.825 102.586 161.728C102.737 161.63 102.907 161.582 103.096 161.582C103.131 161.582 103.176 161.582 103.229 161.584C103.283 161.585 103.323 161.587 103.35 161.59V162.083C103.334 162.079 103.296 162.073 103.237 162.065C103.18 162.055 103.119 162.05 103.055 162.05C102.901 162.05 102.764 162.082 102.644 162.147C102.525 162.21 102.43 162.297 102.36 162.41C102.292 162.521 102.258 162.647 102.258 162.79V164.787H101.773Z" fill="white"/>
<line x1="109.043" y1="162.787" x2="183.423" y2="162.787" stroke="#868685"/>
</g>
<rect x="18.4414" y="177.204" width="163.876" height="18.8347" rx="2.80578" stroke="#868685"/>
<g clip-path="url(#clip4_969_1377)">
<path d="M86.3873 182.76C85.5615 183.046 84.8494 183.59 84.3555 184.311C83.8616 185.032 83.612 185.893 83.6432 186.766C83.6745 187.64 83.9851 188.48 84.5293 189.164C85.0735 189.848 85.8227 190.339 86.6668 190.566C87.3512 190.743 88.0682 190.75 88.7562 190.589C89.3795 190.449 89.9557 190.149 90.4285 189.72C90.9205 189.259 91.2777 188.673 91.4615 188.024C91.6614 187.319 91.6969 186.577 91.5655 185.856H87.7225V187.45H89.9481C89.9036 187.704 89.8083 187.947 89.6678 188.164C89.5274 188.38 89.3447 188.566 89.1307 188.71C88.8589 188.89 88.5526 189.011 88.2313 189.065C87.9091 189.125 87.5786 189.125 87.2563 189.065C86.9298 188.998 86.6208 188.863 86.3492 188.67C85.9128 188.361 85.5852 187.922 85.413 187.416C85.2379 186.9 85.2379 186.341 85.413 185.826C85.5355 185.464 85.7382 185.135 86.0057 184.863C86.3119 184.546 86.6995 184.319 87.126 184.208C87.5526 184.096 88.0015 184.104 88.4237 184.231C88.7535 184.333 89.055 184.51 89.3044 184.748C89.5553 184.498 89.8058 184.248 90.0559 183.997C90.1851 183.862 90.3258 183.734 90.453 183.595C90.0724 183.241 89.6257 182.966 89.1384 182.784C88.2511 182.462 87.2802 182.454 86.3873 182.76Z" fill="white"/>
<path d="M86.3876 182.76C87.2805 182.454 88.2514 182.462 89.1388 182.784C89.6261 182.967 90.0727 183.244 90.4527 183.599C90.3236 183.737 90.1873 183.866 90.0556 184.001C89.8051 184.251 89.5548 184.5 89.3047 184.748C89.0554 184.51 88.7538 184.333 88.424 184.232C88.002 184.104 87.5531 184.096 87.1264 184.207C86.6997 184.317 86.3119 184.544 86.0054 184.861C85.7379 185.133 85.5352 185.462 85.4127 185.823L84.0742 184.787C84.5533 183.837 85.3828 183.11 86.3876 182.76Z" fill="#E33629"/>
<path d="M83.7207 185.813C83.7926 185.456 83.9121 185.111 84.0758 184.786L85.4143 185.825C85.2392 186.341 85.2392 186.9 85.4143 187.416C84.9683 187.76 84.5222 188.106 84.0758 188.454C83.6659 187.638 83.5409 186.708 83.7207 185.813Z" fill="#F8BD00"/>
<path d="M87.7229 185.857H91.5659C91.6974 186.578 91.6618 187.32 91.462 188.025C91.2781 188.673 90.921 189.26 90.4289 189.72C89.997 189.383 89.5631 189.049 89.1311 188.712C89.3453 188.567 89.5281 188.381 89.6685 188.164C89.809 187.948 89.9042 187.705 89.9485 187.45H87.7229C87.7223 186.919 87.7229 186.388 87.7229 185.857Z" fill="#587DBD"/>
<path d="M84.0703 188.457C84.5167 188.113 84.9628 187.767 85.4088 187.419C85.5813 187.926 85.9094 188.364 86.3463 188.673C86.6187 188.866 86.9284 188.999 87.2554 189.066C87.5776 189.126 87.9081 189.126 88.2303 189.066C88.5516 189.011 88.8579 188.89 89.1297 188.711C89.5617 189.048 89.9955 189.382 90.4275 189.719C89.9548 190.149 89.3786 190.449 88.7552 190.589C88.0672 190.75 87.3502 190.743 86.6659 190.566C86.1246 190.422 85.619 190.167 85.1808 189.818C84.717 189.45 84.3382 188.986 84.0703 188.457Z" fill="#319F43"/>
</g>
<path d="M99.0499 185.849C99.0107 185.722 98.9567 185.609 98.8879 185.508C98.8206 185.407 98.7392 185.32 98.6437 185.248C98.5498 185.176 98.4418 185.122 98.3197 185.086C98.1976 185.048 98.0646 185.03 97.9205 185.03C97.6623 185.03 97.4322 185.094 97.2303 185.224C97.0284 185.354 96.8695 185.545 96.7537 185.797C96.6394 186.048 96.5823 186.353 96.5823 186.713C96.5823 187.076 96.6394 187.384 96.7537 187.636C96.8679 187.888 97.0268 188.079 97.2303 188.211C97.4338 188.341 97.6701 188.406 97.9393 188.406C98.1835 188.406 98.3948 188.359 98.5733 188.265C98.7533 188.171 98.8918 188.038 98.9888 187.866C99.0859 187.692 99.1344 187.488 99.1344 187.255L99.3316 187.286H98.0262V186.605H99.9773V187.182C99.9773 187.594 99.8896 187.95 99.7143 188.251C99.539 188.551 99.298 188.783 98.9912 188.946C98.6844 189.107 98.3322 189.188 97.9346 189.188C97.4917 189.188 97.1027 189.088 96.7678 188.889C96.4344 188.689 96.1737 188.405 95.9859 188.037C95.7997 187.668 95.7065 187.229 95.7065 186.722C95.7065 186.334 95.7613 185.987 95.8709 185.682C95.982 185.377 96.137 185.118 96.3357 184.905C96.5345 184.691 96.7678 184.528 97.0354 184.417C97.3031 184.304 97.5942 184.248 97.9088 184.248C98.1749 184.248 98.423 184.287 98.6531 184.365C98.8832 184.442 99.0874 184.551 99.2659 184.694C99.4459 184.836 99.5938 185.005 99.7096 185.201C99.8254 185.397 99.9014 185.613 99.9374 185.849H99.0499ZM102.282 189.192C101.93 189.192 101.625 189.115 101.367 188.96C101.108 188.805 100.908 188.588 100.766 188.309C100.625 188.031 100.554 187.705 100.554 187.333C100.554 186.96 100.625 186.634 100.766 186.354C100.908 186.074 101.108 185.856 101.367 185.701C101.625 185.546 101.93 185.469 102.282 185.469C102.635 185.469 102.94 185.546 103.198 185.701C103.456 185.856 103.656 186.074 103.797 186.354C103.939 186.634 104.01 186.96 104.01 187.333C104.01 187.705 103.939 188.031 103.797 188.309C103.656 188.588 103.456 188.805 103.198 188.96C102.94 189.115 102.635 189.192 102.282 189.192ZM102.287 188.511C102.478 188.511 102.638 188.459 102.766 188.354C102.894 188.248 102.99 188.105 103.052 187.927C103.117 187.748 103.149 187.55 103.149 187.33C103.149 187.11 103.117 186.91 103.052 186.732C102.99 186.552 102.894 186.408 102.766 186.302C102.638 186.196 102.478 186.142 102.287 186.142C102.091 186.142 101.929 186.196 101.799 186.302C101.67 186.408 101.574 186.552 101.51 186.732C101.447 186.91 101.416 187.11 101.416 187.33C101.416 187.55 101.447 187.748 101.51 187.927C101.574 188.105 101.67 188.248 101.799 188.354C101.929 188.459 102.091 188.511 102.287 188.511ZM106.232 189.192C105.88 189.192 105.575 189.115 105.316 188.96C105.058 188.805 104.858 188.588 104.715 188.309C104.574 188.031 104.504 187.705 104.504 187.333C104.504 186.96 104.574 186.634 104.715 186.354C104.858 186.074 105.058 185.856 105.316 185.701C105.575 185.546 105.88 185.469 106.232 185.469C106.584 185.469 106.889 185.546 107.148 185.701C107.406 185.856 107.606 186.074 107.746 186.354C107.889 186.634 107.96 186.96 107.96 187.333C107.96 187.705 107.889 188.031 107.746 188.309C107.606 188.588 107.406 188.805 107.148 188.96C106.889 189.115 106.584 189.192 106.232 189.192ZM106.237 188.511C106.428 188.511 106.587 188.459 106.716 188.354C106.844 188.248 106.94 188.105 107.002 187.927C107.066 187.748 107.098 187.55 107.098 187.33C107.098 187.11 107.066 186.91 107.002 186.732C106.94 186.552 106.844 186.408 106.716 186.302C106.587 186.196 106.428 186.142 106.237 186.142C106.041 186.142 105.878 186.196 105.748 186.302C105.62 186.408 105.524 186.552 105.46 186.732C105.397 186.91 105.366 187.11 105.366 187.33C105.366 187.55 105.397 187.748 105.46 187.927C105.524 188.105 105.62 188.248 105.748 188.354C105.878 188.459 106.041 188.511 106.237 188.511ZM110.177 190.549C109.872 190.549 109.61 190.508 109.391 190.425C109.171 190.343 108.995 190.234 108.862 190.096C108.729 189.958 108.637 189.806 108.585 189.638L109.351 189.453C109.385 189.523 109.435 189.593 109.501 189.662C109.567 189.732 109.655 189.79 109.766 189.836C109.879 189.883 110.021 189.906 110.191 189.906C110.432 189.906 110.632 189.847 110.79 189.73C110.948 189.614 111.027 189.423 111.027 189.157V188.474H110.985C110.941 188.561 110.877 188.651 110.792 188.744C110.709 188.836 110.599 188.914 110.461 188.976C110.325 189.039 110.154 189.07 109.947 189.07C109.67 189.07 109.419 189.005 109.193 188.875C108.97 188.744 108.791 188.548 108.658 188.288C108.527 188.027 108.461 187.7 108.461 187.307C108.461 186.911 108.527 186.577 108.658 186.304C108.791 186.03 108.97 185.823 109.196 185.682C109.421 185.54 109.672 185.469 109.949 185.469C110.161 185.469 110.334 185.505 110.471 185.577C110.608 185.647 110.718 185.732 110.799 185.832C110.881 185.931 110.943 186.024 110.985 186.112H111.032V185.516H111.87V189.181C111.87 189.489 111.796 189.744 111.649 189.946C111.502 190.148 111.301 190.299 111.046 190.399C110.791 190.499 110.501 190.549 110.177 190.549ZM110.184 188.403C110.364 188.403 110.518 188.36 110.644 188.272C110.771 188.184 110.867 188.058 110.933 187.894C110.999 187.73 111.032 187.532 111.032 187.302C111.032 187.075 110.999 186.876 110.933 186.706C110.869 186.535 110.773 186.403 110.647 186.309C110.521 186.214 110.367 186.166 110.184 186.166C109.995 186.166 109.837 186.215 109.71 186.314C109.583 186.412 109.488 186.548 109.423 186.72C109.359 186.891 109.327 187.085 109.327 187.302C109.327 187.523 109.359 187.716 109.423 187.882C109.489 188.047 109.585 188.175 109.712 188.267C109.841 188.358 109.998 188.403 110.184 188.403ZM113.518 184.313V189.122H112.668V184.313H113.518ZM115.916 189.192C115.554 189.192 115.242 189.117 114.979 188.967C114.718 188.815 114.517 188.601 114.376 188.324C114.235 188.045 114.164 187.717 114.164 187.34C114.164 186.969 114.235 186.643 114.376 186.363C114.518 186.081 114.717 185.862 114.972 185.706C115.227 185.548 115.527 185.469 115.871 185.469C116.094 185.469 116.303 185.505 116.501 185.577C116.699 185.647 116.875 185.757 117.027 185.905C117.18 186.054 117.3 186.243 117.388 186.473C117.476 186.702 117.52 186.974 117.52 187.29V187.551H114.564V186.978H116.705C116.703 186.815 116.668 186.671 116.599 186.544C116.53 186.416 116.434 186.315 116.31 186.241C116.188 186.167 116.046 186.131 115.883 186.131C115.709 186.131 115.557 186.173 115.425 186.257C115.294 186.34 115.191 186.45 115.118 186.586C115.046 186.721 115.009 186.869 115.007 187.03V187.53C115.007 187.74 115.046 187.92 115.122 188.07C115.199 188.219 115.306 188.333 115.444 188.413C115.582 188.491 115.743 188.53 115.928 188.53C116.051 188.53 116.163 188.513 116.263 188.479C116.364 188.443 116.451 188.39 116.524 188.321C116.598 188.252 116.653 188.167 116.691 188.065L117.484 188.155C117.434 188.364 117.339 188.547 117.198 188.704C117.059 188.859 116.88 188.979 116.663 189.065C116.445 189.15 116.196 189.192 115.916 189.192Z" fill="white"/>
<rect x="18.4414" y="206.956" width="163.876" height="18.8347" rx="2.80578" stroke="#868685"/>
<g clip-path="url(#clip5_969_1377)">
<path d="M91.8947 216.632C91.8844 215.586 92.748 215.084 92.7868 215.059C92.3012 214.349 91.545 214.251 91.2754 214.24C90.6318 214.175 90.0197 214.62 89.6928 214.62C89.3668 214.62 88.8627 214.25 88.3291 214.26C87.6277 214.27 86.981 214.668 86.6194 215.296C85.8906 216.561 86.4329 218.435 87.1432 219.46C87.4903 219.962 87.904 220.526 88.4474 220.506C88.9706 220.485 89.1685 220.167 89.8012 220.167C90.434 220.167 90.6117 220.506 91.1654 220.495C91.7284 220.485 92.0853 219.983 92.4298 219.48C92.8286 218.897 92.9923 218.333 93.0022 218.304C92.9898 218.299 91.904 217.883 91.8932 216.633L91.8947 216.632ZM90.8544 213.561C91.1427 213.211 91.3374 212.726 91.2842 212.241C90.8689 212.259 90.3653 212.518 90.0672 212.867C89.7997 213.177 89.5657 213.672 89.6282 214.146C90.092 214.183 90.5657 213.911 90.8539 213.562L90.8544 213.561Z" fill="#FFFBFD"/>
</g>
<path d="M98.4694 218.874H97.5396L99.2324 214.065H100.308L102.003 218.874H101.073L99.7889 215.051H99.7513L98.4694 218.874ZM98.4999 216.988H101.036V217.688H98.4999V216.988ZM102.526 220.226V215.267H103.362V215.864H103.411C103.455 215.776 103.517 215.683 103.597 215.584C103.676 215.484 103.784 215.399 103.921 215.329C104.057 215.257 104.231 215.221 104.442 215.221C104.72 215.221 104.972 215.292 105.195 215.434C105.421 215.575 105.599 215.784 105.731 216.061C105.864 216.337 105.93 216.675 105.93 217.075C105.93 217.471 105.865 217.808 105.735 218.085C105.606 218.362 105.429 218.573 105.205 218.719C104.981 218.864 104.727 218.937 104.444 218.937C104.238 218.937 104.066 218.903 103.93 218.834C103.794 218.765 103.684 218.682 103.601 218.585C103.52 218.486 103.456 218.393 103.411 218.306H103.376V220.226H102.526ZM103.359 217.071C103.359 217.304 103.392 217.508 103.458 217.683C103.525 217.859 103.622 217.996 103.747 218.094C103.874 218.191 104.027 218.24 104.207 218.24C104.395 218.24 104.552 218.19 104.679 218.09C104.806 217.988 104.901 217.849 104.965 217.674C105.031 217.497 105.064 217.296 105.064 217.071C105.064 216.847 105.032 216.648 104.968 216.474C104.904 216.301 104.808 216.164 104.681 216.066C104.555 215.967 104.396 215.918 104.207 215.918C104.025 215.918 103.871 215.966 103.744 216.061C103.618 216.157 103.521 216.29 103.456 216.463C103.392 216.635 103.359 216.837 103.359 217.071ZM106.585 220.226V215.267H107.421V215.864H107.471C107.514 215.776 107.576 215.683 107.656 215.584C107.736 215.484 107.844 215.399 107.98 215.329C108.116 215.257 108.29 215.221 108.501 215.221C108.78 215.221 109.031 215.292 109.255 215.434C109.48 215.575 109.659 215.784 109.79 216.061C109.923 216.337 109.99 216.675 109.99 217.075C109.99 217.471 109.925 217.808 109.795 218.085C109.665 218.362 109.488 218.573 109.264 218.719C109.041 218.864 108.787 218.937 108.504 218.937C108.297 218.937 108.126 218.903 107.989 218.834C107.853 218.765 107.744 218.682 107.661 218.585C107.579 218.486 107.516 218.393 107.471 218.306H107.435V220.226H106.585ZM107.419 217.071C107.419 217.304 107.452 217.508 107.518 217.683C107.585 217.859 107.681 217.996 107.806 218.094C107.933 218.191 108.087 218.24 108.267 218.24C108.454 218.24 108.612 218.19 108.738 218.09C108.865 217.988 108.961 217.849 109.025 217.674C109.091 217.497 109.123 217.296 109.123 217.071C109.123 216.847 109.091 216.648 109.027 216.474C108.963 216.301 108.868 216.164 108.741 216.066C108.614 215.967 108.456 215.918 108.267 215.918C108.085 215.918 107.931 215.966 107.804 216.061C107.677 216.157 107.581 216.29 107.515 216.463C107.451 216.635 107.419 216.837 107.419 217.071ZM111.495 214.065V218.874H110.645V214.065H111.495ZM113.893 218.944C113.531 218.944 113.219 218.869 112.956 218.719C112.695 218.567 112.493 218.353 112.353 218.076C112.212 217.797 112.141 217.469 112.141 217.092C112.141 216.721 112.212 216.395 112.353 216.115C112.495 215.833 112.694 215.614 112.949 215.458C113.204 215.3 113.504 215.221 113.848 215.221C114.07 215.221 114.28 215.257 114.477 215.329C114.676 215.399 114.851 215.509 115.003 215.657C115.157 215.806 115.277 215.995 115.365 216.225C115.452 216.454 115.496 216.726 115.496 217.042V217.303H112.54V216.73H114.682C114.68 216.567 114.645 216.423 114.576 216.296C114.507 216.167 114.411 216.067 114.287 215.993C114.165 215.919 114.023 215.883 113.86 215.883C113.686 215.883 113.533 215.925 113.402 216.009C113.271 216.092 113.168 216.202 113.094 216.338C113.022 216.473 112.986 216.621 112.984 216.782V217.282C112.984 217.492 113.022 217.672 113.099 217.822C113.176 217.971 113.283 218.085 113.421 218.165C113.559 218.243 113.72 218.282 113.904 218.282C114.028 218.282 114.14 218.265 114.24 218.23C114.34 218.194 114.427 218.142 114.501 218.073C114.574 218.004 114.63 217.919 114.667 217.817L115.461 217.906C115.411 218.116 115.316 218.299 115.175 218.456C115.035 218.611 114.857 218.731 114.639 218.817C114.422 218.902 114.173 218.944 113.893 218.944Z" fill="white"/>
<g filter="url(#filter2_f_969_1377)">
<circle cx="194.596" cy="293.256" r="25.8264" fill="#95DA66"/>
</g>
</g>
<rect x="0.414062" y="-0.0976562" width="200.347" height="258.198" rx="15.876" stroke="url(#paint1_linear_969_1377)" stroke-opacity="0.4" stroke-width="2"/>
</g>
<g filter="url(#filter3_f_969_1377)">
<circle cx="-1.27066" cy="231.686" r="27.4793" fill="#5873FF" fill-opacity="0.5"/>
</g>
<g filter="url(#filter4_f_969_1377)">
<circle cx="-295.277" cy="-31.7421" r="82.6446" fill="#95DA66" fill-opacity="0.8"/>
</g>
</g>
<defs>
<filter id="filter0_i_969_1377" x="-17.9413" y="-18.453" width="237.058" height="294.909" filterUnits="userSpaceOnUse" color-interpolation-filters="sRGB">
<feFlood flood-opacity="0" result="BackgroundImageFix"/>
<feBlend mode="normal" in="SourceGraphic" in2="BackgroundImageFix" result="shape"/>
<feColorMatrix in="SourceAlpha" type="matrix" values="0 0 0 0 0 0 0 0 0 0 0 0 0 0 0 0 0 0 127 0" result="hardAlpha"/>
<feOffset dx="-2.06612" dy="-2.06612"/>
<feGaussianBlur stdDeviation="51.6529"/>
<feComposite in2="hardAlpha" operator="arithmetic" k2="-1" k3="1"/>
<feColorMatrix type="matrix" values="0 0 0 0 1 0 0 0 0 1 0 0 0 0 1 0 0 0 0.02 0"/>
<feBlend mode="normal" in2="shape" result="effect1_innerShadow_969_1377"/>
</filter>
<filter id="filter1_i_969_1377" x="17.9414" y="49.5715" width="165.289" height="19.8347" filterUnits="userSpaceOnUse" color-interpolation-filters="sRGB">
<feFlood flood-opacity="0" result="BackgroundImageFix"/>
<feBlend mode="normal" in="SourceGraphic" in2="BackgroundImageFix" result="shape"/>
<feColorMatrix in="SourceAlpha" type="matrix" values="0 0 0 0 0 0 0 0 0 0 0 0 0 0 0 0 0 0 127 0" result="hardAlpha"/>
<feMorphology radius="0.413223" operator="erode" in="SourceAlpha" result="effect1_innerShadow_969_1377"/>
<feOffset/>
<feComposite in2="hardAlpha" operator="arithmetic" k2="-1" k3="1"/>
<feColorMatrix type="matrix" values="0 0 0 0 0.52549 0 0 0 0 0.52549 0 0 0 0 0.521569 0 0 0 1 0"/>
<feBlend mode="normal" in2="shape" result="effect1_innerShadow_969_1377"/>
</filter>
<filter id="filter2_f_969_1377" x="36.5381" y="135.198" width="316.115" height="316.116" filterUnits="userSpaceOnUse" color-interpolation-filters="sRGB">
<feFlood flood-opacity="0" result="BackgroundImageFix"/>
<feBlend mode="normal" in="SourceGraphic" in2="BackgroundImageFix" result="shape"/>
<feGaussianBlur stdDeviation="66.1157" result="effect1_foregroundBlur_969_1377"/>
</filter>
<filter id="filter3_f_969_1377" x="-152.717" y="80.2401" width="302.891" height="302.893" filterUnits="userSpaceOnUse" color-interpolation-filters="sRGB">
<feFlood flood-opacity="0" result="BackgroundImageFix"/>
<feBlend mode="normal" in="SourceGraphic" in2="BackgroundImageFix" result="shape"/>
<feGaussianBlur stdDeviation="61.9835" result="effect1_foregroundBlur_969_1377"/>
</filter>
<filter id="filter4_f_969_1377" x="-625.856" y="-362.321" width="661.157" height="661.157" filterUnits="userSpaceOnUse" color-interpolation-filters="sRGB">
<feFlood flood-opacity="0" result="BackgroundImageFix"/>
<feBlend mode="normal" in="SourceGraphic" in2="BackgroundImageFix" result="shape"/>
<feGaussianBlur stdDeviation="123.967" result="effect1_foregroundBlur_969_1377"/>
</filter>
<radialGradient id="paint0_radial_969_1377" cx="0" cy="0" r="1" gradientUnits="userSpaceOnUse" gradientTransform="translate(-10.9588 -15.1836) rotate(52.2638) scale(344.299 231.603)">
<stop stop-color="white" stop-opacity="0.4"/>
<stop offset="1" stop-color="white" stop-opacity="0"/>
</radialGradient>
<linearGradient id="paint1_linear_969_1377" x1="1.41406" y1="0.902344" x2="70.3336" y2="279.347" gradientUnits="userSpaceOnUse">
<stop stop-color="white"/>
<stop offset="1" stop-color="#EEEDED" stop-opacity="0.5"/>
</linearGradient>
<clipPath id="clip0_969_1377">
<rect x="0.589844" y="0.0742188" width="200" height="257.851" rx="14.4628" fill="white"/>
</clipPath>
<clipPath id="clip1_969_1377">
<rect x="1.41406" y="0.902344" width="198.347" height="256.198" rx="14.876" fill="white"/>
</clipPath>
<clipPath id="clip2_969_1377">
<rect width="6.61157" height="6.61157" fill="white" transform="translate(24.5547 56.1838)"/>
</clipPath>
<clipPath id="clip3_969_1377">
<rect width="6.61157" height="6.61157" fill="white" transform="translate(24.5547 98.2417)"/>
</clipPath>
<clipPath id="clip4_969_1377">
<rect width="8.26446" height="8.26446" fill="white" transform="translate(83.5078 182.49)"/>
</clipPath>
<clipPath id="clip5_969_1377">
<rect width="8.26446" height="8.26446" fill="white" transform="translate(85.5078 212.241)"/>
</clipPath>
</defs>
</svg>
