<svg width="335" height="60" viewBox="0 0 335 60" fill="none" xmlns="http://www.w3.org/2000/svg">
<mask id="path-1-inside-1_969_1679" fill="white">
<path d="M-120 30C-120 13.4315 -106.569 0 -90 0H305C321.569 0 335 13.4315 335 30V237H-120V30Z"/>
</mask>
<path d="M-120 30C-120 13.4315 -106.569 0 -90 0H305C321.569 0 335 13.4315 335 30V237H-120V30Z" fill="url(#paint0_linear_969_1679)"/>
<path d="M-122 30C-122 12.3269 -107.673 -2 -90 -2H305C322.673 -2 337 12.3269 337 30H333C333 14.536 320.464 2 305 2H-90C-105.464 2 -118 14.536 -118 30H-122ZM335 237H-120H335ZM-122 237V30C-122 12.3269 -107.673 -2 -90 -2V2C-105.464 2 -118 14.536 -118 30V237H-122ZM305 -2C322.673 -2 337 12.3269 337 30V237H333V30C333 14.536 320.464 2 305 2V-2Z" fill="white" fill-opacity="0.1" mask="url(#path-1-inside-1_969_1679)"/>
<rect x="87" y="14" width="32" height="32" rx="6.4" fill="white" fill-opacity="0.08"/>
<path d="M100.647 29.531H95V23.884H95.9412V27.7513C96.8946 24.7461 99.7398 22.5898 103 22.5898C106.3 22.5898 109.232 24.811 110.128 27.9913L109.222 28.2463C108.439 25.4698 105.88 23.5301 103 23.5301C99.9638 23.531 97.3379 25.6722 96.6866 28.5898H100.647V29.531ZM105.353 30.4722V31.4134H109.313C108.661 34.332 106.039 36.4722 103 36.4722C100.118 36.4722 97.56 34.5324 96.7779 31.756L95.8715 32.011C96.7675 35.1913 99.6993 37.4124 103 37.4124C106.256 37.4124 109.094 35.2666 110.059 32.2529V36.1193H111V30.4722H105.353Z" fill="white"/>
<rect x="151" y="14" width="32" height="32" rx="6.4" fill="white" fill-opacity="0.08"/>
<path d="M171.719 26H164.781C163.797 26 163 26.7975 163 27.7812V34.7188C163 35.7025 163.797 36.5 164.781 36.5H171.719C172.703 36.5 173.5 35.7025 173.5 34.7188V27.7812C173.5 26.7975 172.703 26 171.719 26Z" stroke="white" stroke-linejoin="round"/>
<path d="M170.984 26L171 25.25C170.999 24.7863 170.814 24.3419 170.486 24.014C170.158 23.6861 169.714 23.5013 169.25 23.5H162.5C161.97 23.5016 161.462 23.7128 161.088 24.0875C160.713 24.4623 160.502 24.97 160.5 25.5V32.25C160.501 32.7137 160.686 33.1581 161.014 33.486C161.342 33.8139 161.786 33.9987 162.25 34H163" stroke="white" stroke-linecap="round" stroke-linejoin="round"/>
<rect x="215" y="14" width="32" height="32" rx="6.4" fill="white" fill-opacity="0.08"/>
<path d="M227.791 26.2094L234.791 26.2094L234.791 33.2098M234.305 26.6956L227.207 33.7931" stroke="white" stroke-width="1.65" stroke-linecap="round" stroke-linejoin="round"/>
<defs>
<linearGradient id="paint0_linear_969_1679" x1="-41.9601" y1="-40.6494" x2="152.246" y2="332.193" gradientUnits="userSpaceOnUse">
<stop stop-color="white" stop-opacity="0.05"/>
<stop offset="1" stop-color="white" stop-opacity="0"/>
</linearGradient>
</defs>
</svg>
