<svg width="200" height="199" viewBox="0 0 200 199" fill="none" xmlns="http://www.w3.org/2000/svg">
<rect x="0.609375" width="198.61" height="198.61" rx="24" fill="url(#paint0_linear_969_2057)" fill-opacity="0.05"/>
<path d="M100.124 58C92.6038 58 87.7288 63.0475 81.9638 64.8875C79.6188 65.6375 78.4463 66.01 77.9713 66.5375C77.4963 67.0625 77.3588 67.835 77.0813 69.375C74.1063 85.865 80.6063 101.11 96.1063 107.045C97.7688 107.683 98.6013 108 100.131 108C101.661 108 102.496 107.68 104.161 107.043C119.659 101.11 126.151 85.865 123.176 69.375C122.899 67.835 122.759 67.0625 122.284 66.535C121.809 66.0075 120.639 65.635 118.294 64.8875C112.526 63.0475 107.644 58 100.124 58Z" stroke="#95DA66" stroke-width="3.75" stroke-linecap="round" stroke-linejoin="round"/>
<path d="M92.6289 85.5C92.6289 85.5 95.1289 85.5 97.6289 90.5C97.6289 90.5 105.571 78 112.629 75.5" stroke="#95DA66" stroke-width="3.75" stroke-linecap="round" stroke-linejoin="round"/>
<path d="M55.1005 130.562C55.0475 130.066 54.824 129.68 54.43 129.403C54.0399 129.127 53.5323 128.989 52.9073 128.989C52.4679 128.989 52.091 129.055 51.7766 129.188C51.4622 129.32 51.2217 129.5 51.055 129.727C50.8884 129.955 50.8031 130.214 50.7994 130.506C50.7994 130.748 50.8543 130.958 50.9641 131.136C51.0778 131.314 51.2312 131.466 51.4244 131.591C51.6175 131.712 51.8316 131.814 52.0664 131.898C52.3013 131.981 52.538 132.051 52.7766 132.108L53.8675 132.381C54.3069 132.483 54.7293 132.621 55.1346 132.795C55.5437 132.97 55.9092 133.189 56.2312 133.455C56.5569 133.72 56.8145 134.04 57.0039 134.415C57.1933 134.79 57.288 135.229 57.288 135.733C57.288 136.415 57.1138 137.015 56.7653 137.534C56.4168 138.049 55.913 138.453 55.2539 138.744C54.5986 139.032 53.805 139.176 52.8732 139.176C51.9679 139.176 51.1819 139.036 50.5153 138.756C49.8524 138.475 49.3335 138.066 48.9585 137.528C48.5872 136.991 48.3865 136.335 48.3562 135.562H50.43C50.4603 135.968 50.5853 136.305 50.805 136.574C51.0247 136.843 51.3107 137.044 51.663 137.176C52.0191 137.309 52.4168 137.375 52.8562 137.375C53.3145 137.375 53.716 137.307 54.0607 137.17C54.4092 137.03 54.6819 136.837 54.8789 136.591C55.0759 136.341 55.1763 136.049 55.18 135.716C55.1763 135.413 55.0872 135.163 54.913 134.966C54.7388 134.765 54.4944 134.598 54.18 134.466C53.8694 134.33 53.5058 134.208 53.0891 134.102L51.7653 133.761C50.8069 133.515 50.0494 133.142 49.4925 132.642C48.9395 132.138 48.663 131.47 48.663 130.636C48.663 129.951 48.8486 129.35 49.2198 128.835C49.5948 128.32 50.1043 127.92 50.7482 127.636C51.3922 127.348 52.1213 127.205 52.9357 127.205C53.7615 127.205 54.485 127.348 55.1062 127.636C55.7312 127.92 56.2217 128.316 56.5778 128.824C56.9338 129.328 57.1175 129.907 57.1289 130.562H55.1005ZM62.94 139.17C62.065 139.17 61.3093 138.989 60.6729 138.625C60.0404 138.258 59.5536 137.739 59.2127 137.068C58.8718 136.394 58.7013 135.6 58.7013 134.688C58.7013 133.79 58.8718 133.002 59.2127 132.324C59.5574 131.642 60.0385 131.112 60.6559 130.733C61.2733 130.35 61.9987 130.159 62.832 130.159C63.3699 130.159 63.8775 130.246 64.3548 130.42C64.8358 130.591 65.2601 130.856 65.6275 131.216C65.9987 131.576 66.2904 132.034 66.5025 132.591C66.7146 133.144 66.8207 133.803 66.8207 134.568V135.199H59.6673V133.812H64.8491C64.8453 133.419 64.7601 133.068 64.5934 132.761C64.4267 132.451 64.1938 132.206 63.8945 132.028C63.5991 131.85 63.2544 131.761 62.8604 131.761C62.44 131.761 62.0707 131.864 61.7525 132.068C61.4343 132.269 61.1862 132.534 61.0082 132.864C60.8339 133.189 60.7449 133.547 60.7411 133.938V135.148C60.7411 135.655 60.8339 136.091 61.0195 136.455C61.2051 136.814 61.4646 137.091 61.7979 137.284C62.1313 137.473 62.5214 137.568 62.9684 137.568C63.2676 137.568 63.5385 137.527 63.7809 137.443C64.0233 137.356 64.2335 137.229 64.4116 137.062C64.5896 136.896 64.7241 136.689 64.815 136.443L66.7354 136.659C66.6142 137.167 66.3832 137.61 66.0423 137.989C65.7051 138.364 65.2733 138.655 64.7468 138.864C64.2203 139.068 63.618 139.17 62.94 139.17ZM72.3675 139.17C71.4963 139.17 70.7482 138.979 70.1232 138.597C69.502 138.214 69.0228 137.686 68.6857 137.011C68.3524 136.333 68.1857 135.553 68.1857 134.67C68.1857 133.784 68.3562 133.002 68.6971 132.324C69.038 131.642 69.5191 131.112 70.1403 130.733C70.7653 130.35 71.5039 130.159 72.3562 130.159C73.0645 130.159 73.6914 130.29 74.2369 130.551C74.7861 130.809 75.2236 131.174 75.5494 131.648C75.8751 132.117 76.0607 132.667 76.1062 133.295H74.1403C74.0607 132.875 73.8713 132.525 73.5721 132.244C73.2766 131.96 72.8808 131.818 72.3846 131.818C71.9641 131.818 71.5948 131.932 71.2766 132.159C70.9585 132.383 70.7103 132.705 70.5323 133.125C70.3581 133.545 70.271 134.049 70.271 134.636C70.271 135.231 70.3581 135.742 70.5323 136.17C70.7066 136.595 70.9509 136.922 71.2653 137.153C71.5835 137.381 71.9566 137.494 72.3846 137.494C72.6876 137.494 72.9585 137.437 73.1971 137.324C73.4395 137.206 73.6422 137.038 73.805 136.818C73.9679 136.598 74.0797 136.331 74.1403 136.017H76.1062C76.0569 136.634 75.8751 137.182 75.5607 137.659C75.2463 138.133 74.8183 138.504 74.2766 138.773C73.735 139.038 73.0986 139.17 72.3675 139.17ZM83.3576 135.33V130.273H85.4144V139H83.4201V137.449H83.3292C83.1322 137.937 82.8084 138.337 82.3576 138.648C81.9106 138.958 81.3595 139.114 80.7042 139.114C80.1322 139.114 79.6265 138.987 79.1871 138.733C78.7515 138.475 78.4106 138.102 78.1644 137.614C77.9182 137.121 77.7951 136.527 77.7951 135.83V130.273H79.8519V135.511C79.8519 136.064 80.0034 136.504 80.3065 136.83C80.6095 137.155 81.0072 137.318 81.4996 137.318C81.8027 137.318 82.0962 137.244 82.3803 137.097C82.6644 136.949 82.8974 136.729 83.0792 136.438C83.2648 136.142 83.3576 135.773 83.3576 135.33ZM87.5295 139V130.273H89.5238V131.727H89.6147C89.7738 131.223 90.0465 130.835 90.4329 130.562C90.823 130.286 91.2681 130.148 91.7681 130.148C91.8817 130.148 92.0086 130.153 92.1488 130.165C92.2927 130.172 92.4121 130.186 92.5067 130.205V132.097C92.4196 132.066 92.2814 132.04 92.092 132.017C91.9064 131.991 91.7264 131.977 91.5522 131.977C91.1772 131.977 90.8401 132.059 90.5408 132.222C90.2454 132.381 90.0124 132.602 89.842 132.886C89.6715 133.17 89.5863 133.498 89.5863 133.869V139H87.5295ZM93.8732 139V130.273H95.93V139H93.8732ZM94.9073 129.034C94.5816 129.034 94.3013 128.926 94.0664 128.71C93.8316 128.491 93.7141 128.227 93.7141 127.92C93.7141 127.61 93.8316 127.347 94.0664 127.131C94.3013 126.911 94.5816 126.801 94.9073 126.801C95.2369 126.801 95.5172 126.911 95.7482 127.131C95.9831 127.347 96.1005 127.61 96.1005 127.92C96.1005 128.227 95.9831 128.491 95.7482 128.71C95.5172 128.926 95.2369 129.034 94.9073 129.034ZM102.403 130.273V131.864H97.386V130.273H102.403ZM98.6246 128.182H100.681V136.375C100.681 136.652 100.723 136.864 100.806 137.011C100.894 137.155 101.007 137.254 101.147 137.307C101.288 137.36 101.443 137.386 101.613 137.386C101.742 137.386 101.859 137.377 101.966 137.358C102.075 137.339 102.159 137.322 102.216 137.307L102.562 138.915C102.452 138.953 102.295 138.994 102.091 139.04C101.89 139.085 101.644 139.112 101.352 139.119C100.837 139.134 100.373 139.057 99.9599 138.886C99.547 138.712 99.2193 138.443 98.9769 138.08C98.7383 137.716 98.6209 137.261 98.6246 136.716V128.182ZM105.402 142.273C105.121 142.273 104.862 142.25 104.623 142.205C104.388 142.163 104.201 142.114 104.061 142.057L104.538 140.455C104.837 140.542 105.104 140.583 105.339 140.58C105.574 140.576 105.78 140.502 105.958 140.358C106.14 140.218 106.294 139.983 106.419 139.653L106.595 139.182L103.43 130.273H105.612L107.623 136.864H107.714L109.731 130.273H111.919L108.424 140.057C108.261 140.519 108.046 140.915 107.777 141.244C107.508 141.578 107.178 141.831 106.788 142.006C106.402 142.184 105.94 142.273 105.402 142.273ZM117.402 139V127.364H119.51V132.29H124.902V127.364H127.015V139H124.902V134.057H119.51V139H117.402ZM133.081 139.17C132.206 139.17 131.45 138.989 130.814 138.625C130.181 138.258 129.694 137.739 129.353 137.068C129.012 136.394 128.842 135.6 128.842 134.688C128.842 133.79 129.012 133.002 129.353 132.324C129.698 131.642 130.179 131.112 130.797 130.733C131.414 130.35 132.139 130.159 132.973 130.159C133.511 130.159 134.018 130.246 134.495 130.42C134.976 130.591 135.401 130.856 135.768 131.216C136.139 131.576 136.431 132.034 136.643 132.591C136.855 133.144 136.961 133.803 136.961 134.568V135.199H129.808V133.812H134.99C134.986 133.419 134.901 133.068 134.734 132.761C134.567 132.451 134.334 132.206 134.035 132.028C133.74 131.85 133.395 131.761 133.001 131.761C132.581 131.761 132.211 131.864 131.893 132.068C131.575 132.269 131.327 132.534 131.149 132.864C130.975 133.189 130.886 133.547 130.882 133.938V135.148C130.882 135.655 130.975 136.091 131.16 136.455C131.346 136.814 131.605 137.091 131.939 137.284C132.272 137.473 132.662 137.568 133.109 137.568C133.408 137.568 133.679 137.527 133.922 137.443C134.164 137.356 134.374 137.229 134.552 137.062C134.73 136.896 134.865 136.689 134.956 136.443L136.876 136.659C136.755 137.167 136.524 137.61 136.183 137.989C135.846 138.364 135.414 138.655 134.887 138.864C134.361 139.068 133.759 139.17 133.081 139.17ZM140.758 127.364V139H138.701V127.364H140.758ZM142.873 142.273V130.273H144.896V131.716H145.015C145.121 131.504 145.271 131.278 145.464 131.04C145.657 130.797 145.919 130.591 146.248 130.42C146.578 130.246 146.998 130.159 147.51 130.159C148.184 130.159 148.792 130.331 149.333 130.676C149.879 131.017 150.311 131.523 150.629 132.193C150.951 132.86 151.112 133.678 151.112 134.648C151.112 135.606 150.955 136.42 150.64 137.091C150.326 137.761 149.898 138.273 149.356 138.625C148.815 138.977 148.201 139.153 147.515 139.153C147.015 139.153 146.6 139.07 146.271 138.903C145.941 138.737 145.676 138.536 145.475 138.301C145.279 138.062 145.125 137.837 145.015 137.625H144.93V142.273H142.873ZM144.89 134.636C144.89 135.201 144.97 135.695 145.129 136.119C145.292 136.544 145.525 136.875 145.828 137.114C146.135 137.348 146.506 137.466 146.941 137.466C147.396 137.466 147.777 137.345 148.083 137.102C148.39 136.856 148.621 136.521 148.777 136.097C148.936 135.669 149.015 135.182 149.015 134.636C149.015 134.095 148.938 133.614 148.782 133.193C148.627 132.773 148.396 132.443 148.089 132.205C147.782 131.966 147.4 131.847 146.941 131.847C146.502 131.847 146.129 131.962 145.822 132.193C145.515 132.424 145.282 132.748 145.123 133.165C144.968 133.581 144.89 134.072 144.89 134.636Z" fill="#BAB8B9"/>
<defs>
<linearGradient id="paint0_linear_969_2057" x1="6.12632" y1="100.396" x2="196.428" y2="77.349" gradientUnits="userSpaceOnUse">
<stop stop-color="#69E1A4"/>
<stop offset="1" stop-color="#9ED95B"/>
</linearGradient>
</defs>
</svg>
