<svg width="48" height="48" viewBox="0 0 48 48" fill="none" xmlns="http://www.w3.org/2000/svg">
<rect width="48" height="48" rx="8" fill="#27282B"/>
<path d="M15.3333 32.6667C18 35.3333 21.6667 33.6667 22.6667 32.6667L24.6667 30.6667L17.3333 23.3333L15.3333 25.3333C14.3333 26.3333 12.6667 30 15.3333 32.6667ZM15.3333 32.6667L12 36M32.6667 15.3333C30 12.6667 26.3333 14.3333 25.3333 15.3333L23.3333 17.3333L30.6667 24.6667L32.6667 22.6667C33.6667 21.6667 35.3333 18 32.6667 15.3333ZM32.6667 15.3333L36 12M24.6667 18.6667L22 21.3333M29.3333 23.3333L26.6667 26" stroke="white" stroke-opacity="0.5" stroke-width="1.5" stroke-linecap="round" stroke-linejoin="round"/>
</svg>
