<svg width="48" height="48" viewBox="0 0 48 48" fill="none" xmlns="http://www.w3.org/2000/svg">
<rect width="48" height="48" rx="8" fill="#27282B"/>
<path d="M36.07 29L30 23L36.07 17L37.5 18.41L32.86 23L37.5 27.59L36.07 29ZM30 38H28V33C28 31.6739 27.4732 30.4021 26.5355 29.4645C25.5979 28.5268 24.3261 28 23 28H17C15.6739 28 14.4021 28.5268 13.4645 29.4645C12.5268 30.4021 12 31.6739 12 33V38H10V33C10 31.1435 10.7375 29.363 12.0503 28.0503C13.363 26.7375 15.1435 26 17 26H23C24.8565 26 26.637 26.7375 27.9497 28.0503C29.2625 29.363 30 31.1435 30 33V38ZM20 12C20.9889 12 21.9556 12.2932 22.7779 12.8427C23.6001 13.3921 24.241 14.173 24.6194 15.0866C24.9978 16.0002 25.0969 17.0055 24.9039 17.9755C24.711 18.9454 24.2348 19.8363 23.5355 20.5355C22.8363 21.2348 21.9454 21.711 20.9755 21.9039C20.0055 22.0969 19.0002 21.9978 18.0866 21.6194C17.173 21.241 16.3921 20.6001 15.8427 19.7779C15.2932 18.9556 15 17.9889 15 17C15 15.6739 15.5268 14.4021 16.4645 13.4645C17.4021 12.5268 18.6739 12 20 12ZM20 10C18.6155 10 17.2622 10.4105 16.111 11.1797C14.9599 11.9489 14.0627 13.0421 13.5328 14.3212C13.003 15.6003 12.8644 17.0078 13.1345 18.3656C13.4046 19.7235 14.0713 20.9708 15.0503 21.9497C16.0292 22.9287 17.2765 23.5954 18.6344 23.8655C19.9922 24.1356 21.3997 23.997 22.6788 23.4672C23.9579 22.9373 25.0511 22.0401 25.8203 20.889C26.5895 19.7378 27 18.3845 27 17C27 15.1435 26.2625 13.363 24.9497 12.0503C23.637 10.7375 21.8565 10 20 10Z" fill="white" fill-opacity="0.5"/>
</svg>
