<svg width="56" height="57" viewBox="0 0 56 57" fill="none" xmlns="http://www.w3.org/2000/svg">
<circle cx="28" cy="28.5" r="28" fill="white"/>
<path d="M44.6615 25.1719V36.8385C44.6615 38.1646 44.1347 39.4364 43.197 40.3741C42.2593 41.3118 40.9875 41.8385 39.6615 41.8385H16.3281C15.002 41.8385 13.7303 41.3118 12.7926 40.3741C11.8549 39.4364 11.3281 38.1646 11.3281 36.8385V25.1719H44.6615ZM37.9948 31.8385H32.9948C32.5528 31.8385 32.1288 32.0141 31.8163 32.3267C31.5037 32.6393 31.3281 33.0632 31.3281 33.5052C31.3281 33.9472 31.5037 34.3712 31.8163 34.6837C32.1288 34.9963 32.5528 35.1719 32.9948 35.1719H37.9948C38.4368 35.1719 38.8607 34.9963 39.1733 34.6837C39.4859 34.3712 39.6615 33.9472 39.6615 33.5052C39.6615 33.0632 39.4859 32.6393 39.1733 32.3267C38.8607 32.0141 38.4368 31.8385 37.9948 31.8385ZM39.6615 15.1719C40.9875 15.1719 42.2593 15.6987 43.197 16.6363C44.1347 17.574 44.6615 18.8458 44.6615 20.1719V21.8385H11.3281V20.1719C11.3281 18.8458 11.8549 17.574 12.7926 16.6363C13.7303 15.6987 15.002 15.1719 16.3281 15.1719H39.6615Z" fill="#648A3A"/>
</svg>
