<svg width="56" height="57" viewBox="0 0 56 57" fill="none" xmlns="http://www.w3.org/2000/svg">
<circle cx="28" cy="28.5" r="28" fill="white"/>
<path d="M38 34.75V37.25H40.185C38.7988 39.1872 36.9697 40.7651 34.8502 41.8522C32.7307 42.9394 30.3821 43.5043 28 43.5C19.7288 43.5 13 36.7712 13 28.5H10.5C10.5 38.15 18.35 46 28 46C33.4438 46 38.4675 43.4988 41.75 39.3188V41H44.25V34.75H38Z" fill="#648A3A"/>
<path d="M36.1312 23.046L28.645 18.671C28.4539 18.5592 28.2365 18.5002 28.0152 18.5C27.7938 18.4998 27.5763 18.5584 27.385 18.6697L19.8712 23.0447C19.6823 23.1547 19.5255 23.3123 19.4165 23.5018C19.3075 23.6913 19.2501 23.9061 19.25 24.1247V32.8747C19.2501 33.0934 19.3075 33.3082 19.4165 33.4977C19.5255 33.6872 19.6823 33.8448 19.8712 33.9547L27.385 38.3298C27.5709 38.4409 27.7834 38.4996 28 38.4997C28.2175 38.4997 28.45 38.4435 28.645 38.3285L36.1312 33.9535C36.3196 33.8433 36.4757 33.6858 36.5843 33.4965C36.6928 33.3073 36.75 33.0929 36.75 32.8747V24.1247C36.75 23.9066 36.6928 23.6922 36.5843 23.503C36.4757 23.3137 36.3196 23.1562 36.1312 23.046ZM28.0138 21.196L33.0225 24.1247L28.0138 27.0522L22.985 24.1247L28.0138 21.196ZM21.75 26.2997L26.75 29.2122V35.0685L21.75 32.156V26.2997ZM29.25 35.081V29.2272L34.25 26.3047V32.1585L29.25 35.081Z" fill="#648A3A"/>
<path d="M28 11C25.3512 10.9962 22.7363 11.5959 20.3538 12.7535C17.9713 13.9112 15.8839 15.5964 14.25 17.6813V16H11.75V22.25H18V19.75H15.815C17.2012 17.8128 19.0303 16.2349 21.1498 15.1478C23.2693 14.0606 25.6179 13.4957 28 13.5C36.2712 13.5 43 20.2288 43 28.5H45.5C45.5 18.85 37.65 11 28 11Z" fill="#648A3A"/>
</svg>
