<svg width="56" height="57" viewBox="0 0 56 57" fill="none" xmlns="http://www.w3.org/2000/svg">
<circle cx="28" cy="28.5" r="28" fill="white"/>
<path d="M31.42 11.5564C31.164 11.3472 30.8691 11.1909 30.5522 11.0964C30.2354 11.0019 29.903 10.9713 29.5742 11.0061C29.2455 11.041 28.9269 11.1408 28.6369 11.2996C28.347 11.4584 28.0914 11.6732 27.885 11.9314L20.645 21.0014H23.845L29.8375 13.4914L31.7625 15.0639L26.9375 21.0014H30.1575L33.7 16.6414L37.995 20.1489L37.25 21.0014H38C38.7455 21.0006 39.487 21.111 40.2 21.3289C40.4724 20.818 40.5589 20.2284 40.4449 19.6607C40.331 19.0931 40.0235 18.5826 39.575 18.2164L31.42 11.5564ZM15.5 22.2514C15.5 21.9199 15.6317 21.602 15.8661 21.3675C16.1005 21.1331 16.4185 21.0014 16.75 21.0014H18.145L20.1325 18.5014H16.75C15.7554 18.5014 14.8016 18.8965 14.0983 19.5998C13.3951 20.303 13 21.2569 13 22.2514V37.2514C13 38.909 13.6585 40.4987 14.8306 41.6709C16.0027 42.843 17.5924 43.5014 19.25 43.5014H38C39.3261 43.5014 40.5979 42.9746 41.5355 42.037C42.4732 41.0993 43 39.8275 43 38.5014V28.5014C43 27.1754 42.4732 25.9036 41.5355 24.9659C40.5979 24.0282 39.3261 23.5014 38 23.5014H16.75C16.4185 23.5014 16.1005 23.3697 15.8661 23.1353C15.6317 22.9009 15.5 22.583 15.5 22.2514ZM34.25 33.5014H36.75C37.0815 33.5014 37.3995 33.6331 37.6339 33.8675C37.8683 34.102 38 34.4199 38 34.7514C38 35.083 37.8683 35.4009 37.6339 35.6353C37.3995 35.8697 37.0815 36.0014 36.75 36.0014H34.25C33.9185 36.0014 33.6005 35.8697 33.3661 35.6353C33.1317 35.4009 33 35.083 33 34.7514C33 34.4199 33.1317 34.102 33.3661 33.8675C33.6005 33.6331 33.9185 33.5014 34.25 33.5014Z" fill="#648A3A"/>
</svg>
