<svg width="207" height="235" viewBox="0 0 207 235" fill="none" xmlns="http://www.w3.org/2000/svg">
<path opacity="0.2" d="M117.393 234.786C182.228 234.786 234.786 182.228 234.786 117.393C234.786 52.5587 182.228 0 117.393 0C52.5587 0 0 52.5587 0 117.393C0 182.228 52.5587 234.786 117.393 234.786Z" fill="url(#paint0_linear_969_1462)"/>
<path opacity="0.1" d="M117.393 196.462C161.062 196.462 196.462 161.062 196.462 117.393C196.462 73.7246 161.062 38.3242 117.393 38.3242C73.7246 38.3242 38.3242 73.7246 38.3242 117.393C38.3242 161.062 73.7246 196.462 117.393 196.462Z" fill="#F7FFF6"/>
<path d="M117.395 169.032C145.913 169.032 169.032 145.913 169.032 117.395C169.032 88.8764 145.913 65.7578 117.395 65.7578C88.8764 65.7578 65.7578 88.8764 65.7578 117.395C65.7578 145.913 88.8764 169.032 117.395 169.032Z" fill="#F7FFF6" fill-opacity="0.2"/>
<g clip-path="url(#clip0_969_1462)">
<path d="M133.131 117C133.123 114.46 132.85 111.928 132.319 109.445H139.119C138.77 108.408 138.347 107.398 137.853 106.423H131.525C130.336 102.448 128.491 98.7006 126.066 95.3348C124.517 94.6835 122.902 94.2022 121.25 93.8992C124.572 97.4667 127.08 101.714 128.597 106.347H118.416V93.5781H115.583V106.366H105.402C106.923 101.725 109.437 97.4704 112.769 93.8992C111.123 94.1974 109.514 94.6724 107.971 95.3159C105.536 98.6676 103.679 102.402 102.474 106.366H96.1087C95.6055 107.359 95.1762 108.388 94.8242 109.445H101.681C101.149 111.928 100.877 114.46 100.869 117C100.874 119.778 101.191 122.547 101.813 125.255H95.1264C95.5151 126.314 95.9823 127.344 96.5242 128.334H102.625C103.781 131.953 105.496 135.369 107.706 138.458C109.289 139.137 110.943 139.637 112.636 139.95C109.553 136.588 107.182 132.636 105.666 128.334H115.602V140.309H118.435V128.334H128.333C126.812 132.638 124.434 136.59 121.344 139.95C123.046 139.626 124.706 139.113 126.293 138.42C128.5 135.342 130.215 131.939 131.374 128.334H137.419C137.958 127.362 138.425 126.352 138.816 125.311H132.111C132.762 122.588 133.105 119.8 133.131 117ZM115.583 125.255H104.741C103.412 120.056 103.353 114.614 104.571 109.388H115.583V125.255ZM129.259 125.255H118.416V109.445H129.429C129.971 111.926 130.237 114.46 130.222 117C130.24 119.781 129.916 122.553 129.259 125.255Z" fill="#EDEDED" fill-opacity="0.92"/>
<path d="M117 86.7773C111.022 86.7773 105.179 88.5498 100.209 91.8707C95.239 95.1916 91.3653 99.9116 89.0779 105.434C86.7904 110.956 86.1919 117.033 87.3581 122.896C88.5242 128.758 91.4026 134.143 95.6293 138.37C99.8559 142.597 105.241 145.475 111.104 146.641C116.966 147.807 123.043 147.209 128.565 144.921C134.088 142.634 138.808 138.76 142.128 133.79C145.449 128.82 147.222 122.977 147.222 117C147.222 108.984 144.038 101.297 138.37 95.6292C132.702 89.9615 125.015 86.7773 117 86.7773ZM117 143.444C111.769 143.444 106.657 141.893 102.308 138.987C97.9591 136.082 94.5696 131.952 92.5681 127.119C90.5666 122.287 90.0429 116.97 91.0633 111.841C92.0836 106.711 94.6022 101.999 98.3005 98.3005C101.999 94.6022 106.711 92.0836 111.841 91.0632C116.97 90.0429 122.287 90.5666 127.119 92.5681C131.952 94.5696 136.082 97.9591 138.987 102.308C141.893 106.657 143.444 111.769 143.444 117C143.444 124.013 140.658 130.739 135.699 135.699C130.739 140.658 124.013 143.444 117 143.444Z" fill="#EDEDED" fill-opacity="0.92"/>
</g>
<defs>
<linearGradient id="paint0_linear_969_1462" x1="-0.403413" y1="117.393" x2="235.19" y2="117.393" gradientUnits="userSpaceOnUse">
<stop stop-color="white" stop-opacity="0.5"/>
<stop offset="0.93" stop-color="#4F4F4F"/>
</linearGradient>
<clipPath id="clip0_969_1462">
<rect width="68" height="68" fill="white" transform="translate(83 83)"/>
</clipPath>
</defs>
</svg>
