<svg width="21" height="21" viewBox="0 0 21 21" fill="none" xmlns="http://www.w3.org/2000/svg">
<path d="M10.0734 19.2179C12.283 19.2179 14.4021 18.3402 15.9645 16.7778C17.5269 15.2153 18.4047 13.0963 18.4047 10.8867C18.4047 8.67708 17.5269 6.558 15.9645 4.99559C14.4021 3.43317 12.283 2.55542 10.0734 2.55542C7.86385 2.55542 5.74477 3.43317 4.18235 4.99559C2.61994 6.558 1.74219 8.67708 1.74219 10.8867C1.74219 13.0963 2.61994 15.2153 4.18235 16.7778C5.74477 18.3402 7.86385 19.2179 10.0734 19.2179Z" fill="url(#paint0_linear_119_204)"/>
<path d="M8.54922 16.6492C8.54922 16.8617 8.40547 16.9305 8.19922 16.9305C5.63047 16.093 3.82422 13.7367 3.82422 10.9555C3.82422 8.1805 5.63047 5.818 8.19922 4.98675C8.40547 4.91175 8.54922 5.04925 8.54922 5.26175V5.74925C8.54922 5.88675 8.47422 6.02425 8.33672 6.093C7.34077 6.45857 6.48086 7.12071 5.87291 7.99017C5.26496 8.85962 4.93821 9.89458 4.93672 10.9555C4.94175 12.0156 5.26989 13.0489 5.87737 13.9177C6.48484 14.7865 7.34277 15.4494 8.33672 15.818C8.47422 15.8867 8.54922 16.0242 8.54922 16.1617V16.6492Z" fill="white"/>
<path d="M10.6301 14.9117C10.6301 15.0555 10.4926 15.193 10.3488 15.193H9.79883C9.72569 15.1885 9.65671 15.1575 9.60489 15.1057C9.55308 15.0538 9.52202 14.9849 9.51758 14.9117V14.0805C8.40508 13.943 7.84883 13.318 7.64258 12.4117C7.64258 12.2742 7.71133 12.1367 7.84883 12.1367H8.47383C8.61758 12.1367 8.68633 12.2055 8.75508 12.343C8.89258 12.8305 9.17383 13.2492 10.0738 13.2492C10.7676 13.2492 11.2551 12.8992 11.2551 12.343C11.2551 11.7867 10.9738 11.5805 10.0051 11.443C8.54883 11.2367 7.84883 10.818 7.84883 9.63672C7.84883 8.73672 8.54883 8.03672 9.51758 7.89922V7.07422C9.51758 6.93672 9.65508 6.79297 9.79883 6.79297H10.3488C10.4926 6.79297 10.6301 6.93672 10.6301 7.07422V7.90547C11.4613 8.04297 12.0176 8.53047 12.1551 9.29297C12.1551 9.43672 12.0926 9.57422 11.9488 9.57422H11.3926C11.2551 9.57422 11.1863 9.50547 11.1176 9.36797C10.9738 8.88047 10.6301 8.66797 10.0051 8.66797C9.31133 8.66797 8.96133 9.01797 8.96133 9.50547C8.96133 9.99297 9.17383 10.268 10.2113 10.4055C11.6738 10.618 12.3676 11.0305 12.3676 12.218C12.3676 13.118 11.6738 13.8805 10.6301 14.093V14.918" fill="white"/>
<path d="M11.9496 16.9304C11.7434 16.9929 11.5996 16.8617 11.5996 16.6492V16.1617C11.5996 16.0242 11.6746 15.8867 11.8121 15.8179C12.8081 15.4524 13.668 14.7902 14.2759 13.9208C14.8839 13.0513 15.2106 12.0164 15.2121 10.9554C15.2071 9.89536 14.8789 8.86201 14.2715 7.99323C13.664 7.12445 12.8061 6.46155 11.8121 6.09294C11.748 6.06132 11.6941 6.01232 11.6566 5.95154C11.619 5.89076 11.5993 5.82065 11.5996 5.74919V5.26169C11.5996 5.05544 11.7434 4.98669 11.9496 4.98669C14.4496 5.81794 16.3246 8.1742 16.3246 10.9554C16.3246 13.7367 14.5184 16.0929 11.9496 16.9304Z" fill="white"/>
<defs>
<linearGradient id="paint0_linear_119_204" x1="6.28594" y1="2.34292" x2="14.9359" y2="18.9242" gradientUnits="userSpaceOnUse">
<stop stop-color="#0666CE"/>
<stop offset="1" stop-color="#61A9F8"/>
</linearGradient>
</defs>
</svg>
