<svg width="20" height="20" viewBox="0 0 20 20" fill="none" xmlns="http://www.w3.org/2000/svg">
<path fill-rule="evenodd" clip-rule="evenodd" d="M16.6485 4.24005C16.8472 4.41214 16.9701 4.6555 16.9906 4.91749C17.0112 5.17949 16.9279 5.43905 16.7585 5.64005L8.25855 15.6401C8.16612 15.7494 8.05129 15.8376 7.92182 15.8987C7.79235 15.9599 7.65127 15.9925 7.50811 15.9944C7.36495 15.9963 7.22305 15.9674 7.09201 15.9097C6.96097 15.852 6.84384 15.7669 6.74855 15.6601L3.24855 11.6601C3.08692 11.4594 3.00899 11.2041 3.031 10.9473C3.05302 10.6906 3.17328 10.4523 3.36672 10.2821C3.56015 10.1118 3.81183 10.0228 4.06928 10.0337C4.32672 10.0445 4.57006 10.1542 4.74855 10.3401L7.48855 13.4701L15.2385 4.35005C15.4106 4.15143 15.654 4.02854 15.916 4.00796C16.178 3.98737 16.4376 4.07075 16.6385 4.24005" fill="url(#paint0_linear_297_285)"/>
<defs>
<linearGradient id="paint0_linear_297_285" x1="3.4153" y1="10.0655" x2="16.7287" y2="8.18732" gradientUnits="userSpaceOnUse">
<stop stop-color="#69E1A4"/>
<stop offset="1" stop-color="#9ED95B"/>
</linearGradient>
</defs>
</svg>
