<svg width="199" height="199" viewBox="0 0 199 199" fill="none" xmlns="http://www.w3.org/2000/svg">
<rect x="0.21875" width="198.61" height="198.61" rx="24" fill="url(#paint0_linear_969_2064)" fill-opacity="0.05"/>
<g clip-path="url(#clip0_969_2064)">
<path d="M110.948 82.94L126.326 69.58V96.1475L110.948 82.94ZM91.1333 85.2025L96.5333 89.89C97.3808 90.61 98.4858 91.045 99.6933 91.045H99.7358H99.7683C100.978 91.045 102.083 90.6075 102.941 89.8825L102.933 89.8875L108.333 85.2L124.748 99.2975H74.7258L91.1333 85.2025ZM74.7033 66.4125H124.778L100.726 87.3025C100.457 87.5185 100.121 87.6351 99.7758 87.6325H99.7408H99.7083C99.3619 87.635 99.0254 87.5175 98.7558 87.3L98.7583 87.3025L74.7033 66.4125ZM73.1508 69.5775L88.5258 82.9375L73.1508 96.1375V69.5775ZM127.151 63.475C126.551 63.175 125.846 63 125.098 63H74.3858C73.6615 63.0029 72.9475 63.1713 72.2983 63.4925L72.3258 63.48C71.5504 63.8637 70.8975 64.4561 70.4404 65.1905C69.9833 65.925 69.7402 66.7724 69.7383 67.6375V98.0675C69.7396 99.299 70.2294 100.48 71.1002 101.351C71.9711 102.221 73.1518 102.711 74.3833 102.713H125.091C126.322 102.711 127.503 102.221 128.374 101.351C129.245 100.48 129.734 99.299 129.736 98.0675V67.6375C129.736 65.82 128.688 64.245 127.163 63.4875L127.136 63.475H127.151Z" fill="#95DA66"/>
</g>
<path d="M47.3462 131.29H45.2212C45.1606 130.941 45.0489 130.633 44.886 130.364C44.7231 130.091 44.5205 129.86 44.2781 129.67C44.0356 129.481 43.7591 129.339 43.4485 129.244C43.1417 129.146 42.8103 129.097 42.4542 129.097C41.8216 129.097 41.261 129.256 40.7724 129.574C40.2837 129.888 39.9012 130.35 39.6246 130.96C39.3481 131.566 39.2099 132.307 39.2099 133.182C39.2099 134.072 39.3481 134.822 39.6246 135.432C39.9049 136.038 40.2875 136.496 40.7724 136.807C41.261 137.114 41.8197 137.267 42.4485 137.267C42.797 137.267 43.1228 137.222 43.4258 137.131C43.7326 137.036 44.0072 136.898 44.2496 136.716C44.4959 136.534 44.7023 136.311 44.869 136.045C45.0394 135.78 45.1568 135.477 45.2212 135.136L47.3462 135.148C47.2667 135.701 47.0943 136.22 46.8292 136.705C46.5678 137.189 46.225 137.617 45.8008 137.989C45.3765 138.356 44.8803 138.644 44.3121 138.852C43.744 139.057 43.1133 139.159 42.4201 139.159C41.3974 139.159 40.4845 138.922 39.6815 138.449C38.8784 137.975 38.2459 137.292 37.7837 136.398C37.3216 135.504 37.0906 134.432 37.0906 133.182C37.0906 131.928 37.3235 130.856 37.7894 129.966C38.2553 129.072 38.8898 128.388 39.6928 127.915C40.4959 127.441 41.4049 127.205 42.4201 127.205C43.0678 127.205 43.6701 127.295 44.2269 127.477C44.7837 127.659 45.2799 127.926 45.7156 128.278C46.1512 128.627 46.5091 129.055 46.7894 129.562C47.0735 130.066 47.2591 130.642 47.3462 131.29ZM52.9925 139.17C52.1403 139.17 51.4016 138.983 50.7766 138.608C50.1516 138.233 49.6668 137.708 49.3221 137.034C48.9812 136.36 48.8107 135.572 48.8107 134.67C48.8107 133.769 48.9812 132.979 49.3221 132.301C49.6668 131.623 50.1516 131.097 50.7766 130.722C51.4016 130.347 52.1403 130.159 52.9925 130.159C53.8448 130.159 54.5835 130.347 55.2085 130.722C55.8335 131.097 56.3164 131.623 56.6573 132.301C57.002 132.979 57.1744 133.769 57.1744 134.67C57.1744 135.572 57.002 136.36 56.6573 137.034C56.3164 137.708 55.8335 138.233 55.2085 138.608C54.5835 138.983 53.8448 139.17 52.9925 139.17ZM53.0039 137.523C53.466 137.523 53.8524 137.396 54.163 137.142C54.4736 136.884 54.7047 136.54 54.8562 136.108C55.0115 135.676 55.0891 135.195 55.0891 134.665C55.0891 134.131 55.0115 133.648 54.8562 133.216C54.7047 132.78 54.4736 132.434 54.163 132.176C53.8524 131.919 53.466 131.79 53.0039 131.79C52.5304 131.79 52.1365 131.919 51.8221 132.176C51.5115 132.434 51.2785 132.78 51.1232 133.216C50.9717 133.648 50.896 134.131 50.896 134.665C50.896 135.195 50.9717 135.676 51.1232 136.108C51.2785 136.54 51.5115 136.884 51.8221 137.142C52.1365 137.396 52.5304 137.523 53.0039 137.523ZM60.9769 133.886V139H58.9201V130.273H60.886V131.756H60.9883C61.189 131.267 61.5091 130.879 61.9485 130.591C62.3917 130.303 62.939 130.159 63.5906 130.159C64.1928 130.159 64.7174 130.288 65.1644 130.545C65.6152 130.803 65.9637 131.176 66.2099 131.665C66.4599 132.153 66.583 132.746 66.5792 133.443V139H64.5224V133.761C64.5224 133.178 64.3709 132.722 64.0678 132.392C63.7686 132.062 63.3538 131.898 62.8235 131.898C62.4637 131.898 62.1436 131.977 61.8633 132.136C61.5868 132.292 61.369 132.517 61.2099 132.812C61.0546 133.108 60.9769 133.466 60.9769 133.886ZM73.0281 130.273V131.864H68.011V130.273H73.0281ZM69.2496 128.182H71.3065V136.375C71.3065 136.652 71.3481 136.864 71.4315 137.011C71.5186 137.155 71.6322 137.254 71.7724 137.307C71.9125 137.36 72.0678 137.386 72.2383 137.386C72.3671 137.386 72.4845 137.377 72.5906 137.358C72.7004 137.339 72.7837 137.322 72.8406 137.307L73.1871 138.915C73.0773 138.953 72.9201 138.994 72.7156 139.04C72.5148 139.085 72.2686 139.112 71.9769 139.119C71.4618 139.134 70.9978 139.057 70.5849 138.886C70.172 138.712 69.8443 138.443 69.6019 138.08C69.3633 137.716 69.2459 137.261 69.2496 136.716V128.182ZM77.2596 139.176C76.7066 139.176 76.2085 139.078 75.7653 138.881C75.3259 138.68 74.9774 138.384 74.7198 137.994C74.466 137.604 74.3391 137.123 74.3391 136.551C74.3391 136.059 74.43 135.652 74.6119 135.33C74.7937 135.008 75.0418 134.75 75.3562 134.557C75.6706 134.364 76.0247 134.218 76.4187 134.119C76.8164 134.017 77.2274 133.943 77.6516 133.898C78.163 133.845 78.5778 133.797 78.896 133.756C79.2141 133.71 79.4452 133.642 79.5891 133.551C79.7369 133.456 79.8107 133.311 79.8107 133.114V133.08C79.8107 132.652 79.6838 132.32 79.43 132.085C79.1763 131.85 78.8107 131.733 78.3335 131.733C77.8297 131.733 77.43 131.843 77.1346 132.062C76.8429 132.282 76.646 132.542 76.5437 132.841L74.6232 132.568C74.7747 132.038 75.0247 131.595 75.3732 131.239C75.7217 130.879 76.1478 130.61 76.6516 130.432C77.1554 130.25 77.7122 130.159 78.3221 130.159C78.7425 130.159 79.1611 130.208 79.5778 130.307C79.9944 130.405 80.3751 130.568 80.7198 130.795C81.0645 131.019 81.341 131.324 81.5494 131.71C81.7615 132.097 81.8675 132.58 81.8675 133.159V139H79.8903V137.801H79.8221C79.6971 138.044 79.521 138.271 79.2937 138.483C79.0702 138.691 78.788 138.86 78.4471 138.989C78.11 139.114 77.7141 139.176 77.2596 139.176ZM77.7937 137.665C78.2066 137.665 78.5645 137.583 78.8675 137.42C79.1706 137.254 79.4035 137.034 79.5664 136.761C79.7331 136.489 79.8164 136.191 79.8164 135.869V134.841C79.752 134.894 79.6422 134.943 79.4869 134.989C79.3353 135.034 79.1649 135.074 78.9755 135.108C78.7861 135.142 78.5986 135.172 78.413 135.199C78.2274 135.225 78.0664 135.248 77.93 135.267C77.6232 135.309 77.3486 135.377 77.1062 135.472C76.8638 135.566 76.6725 135.699 76.5323 135.869C76.3922 136.036 76.3221 136.252 76.3221 136.517C76.3221 136.896 76.4603 137.182 76.7369 137.375C77.0134 137.568 77.3656 137.665 77.7937 137.665ZM87.7425 139.17C86.8713 139.17 86.1232 138.979 85.4982 138.597C84.877 138.214 84.3978 137.686 84.0607 137.011C83.7274 136.333 83.5607 135.553 83.5607 134.67C83.5607 133.784 83.7312 133.002 84.0721 132.324C84.413 131.642 84.8941 131.112 85.5153 130.733C86.1403 130.35 86.8789 130.159 87.7312 130.159C88.4395 130.159 89.0664 130.29 89.6119 130.551C90.1611 130.809 90.5986 131.174 90.9244 131.648C91.2501 132.117 91.4357 132.667 91.4812 133.295H89.5153C89.4357 132.875 89.2463 132.525 88.9471 132.244C88.6516 131.96 88.2558 131.818 87.7596 131.818C87.3391 131.818 86.9698 131.932 86.6516 132.159C86.3335 132.383 86.0853 132.705 85.9073 133.125C85.7331 133.545 85.646 134.049 85.646 134.636C85.646 135.231 85.7331 135.742 85.9073 136.17C86.0816 136.595 86.3259 136.922 86.6403 137.153C86.9585 137.381 87.3316 137.494 87.7596 137.494C88.0626 137.494 88.3335 137.437 88.5721 137.324C88.8145 137.206 89.0172 137.038 89.18 136.818C89.3429 136.598 89.4547 136.331 89.5153 136.017H91.4812C91.4319 136.634 91.2501 137.182 90.9357 137.659C90.6213 138.133 90.1933 138.504 89.6516 138.773C89.11 139.038 88.4736 139.17 87.7425 139.17ZM97.5281 130.273V131.864H92.511V130.273H97.5281ZM93.7496 128.182H95.8065V136.375C95.8065 136.652 95.8481 136.864 95.9315 137.011C96.0186 137.155 96.1322 137.254 96.2724 137.307C96.4125 137.36 96.5678 137.386 96.7383 137.386C96.8671 137.386 96.9845 137.377 97.0906 137.358C97.2004 137.339 97.2837 137.322 97.3406 137.307L97.6871 138.915C97.5773 138.953 97.4201 138.994 97.2156 139.04C97.0148 139.085 96.7686 139.112 96.4769 139.119C95.9618 139.134 95.4978 139.057 95.0849 138.886C94.672 138.712 94.3443 138.443 94.1019 138.08C93.8633 137.716 93.7459 137.261 93.7496 136.716V128.182ZM113.706 133.182C113.706 134.436 113.471 135.509 113.001 136.403C112.535 137.294 111.899 137.975 111.092 138.449C110.289 138.922 109.378 139.159 108.359 139.159C107.34 139.159 106.427 138.922 105.62 138.449C104.817 137.972 104.181 137.288 103.711 136.398C103.245 135.504 103.012 134.432 103.012 133.182C103.012 131.928 103.245 130.856 103.711 129.966C104.181 129.072 104.817 128.388 105.62 127.915C106.427 127.441 107.34 127.205 108.359 127.205C109.378 127.205 110.289 127.441 111.092 127.915C111.899 128.388 112.535 129.072 113.001 129.966C113.471 130.856 113.706 131.928 113.706 133.182ZM111.586 133.182C111.586 132.299 111.448 131.555 111.172 130.949C110.899 130.339 110.52 129.879 110.035 129.568C109.55 129.254 108.992 129.097 108.359 129.097C107.726 129.097 107.168 129.254 106.683 129.568C106.198 129.879 105.817 130.339 105.541 130.949C105.268 131.555 105.132 132.299 105.132 133.182C105.132 134.064 105.268 134.811 105.541 135.42C105.817 136.027 106.198 136.487 106.683 136.801C107.168 137.112 107.726 137.267 108.359 137.267C108.992 137.267 109.55 137.112 110.035 136.801C110.52 136.487 110.899 136.027 111.172 135.42C111.448 134.811 111.586 134.064 111.586 133.182ZM115.608 142.273V130.273H117.63V131.716H117.75C117.856 131.504 118.005 131.278 118.199 131.04C118.392 130.797 118.653 130.591 118.983 130.42C119.312 130.246 119.733 130.159 120.244 130.159C120.918 130.159 121.526 130.331 122.068 130.676C122.613 131.017 123.045 131.523 123.363 132.193C123.685 132.86 123.846 133.678 123.846 134.648C123.846 135.606 123.689 136.42 123.375 137.091C123.06 137.761 122.632 138.273 122.091 138.625C121.549 138.977 120.935 139.153 120.25 139.153C119.75 139.153 119.335 139.07 119.005 138.903C118.676 138.737 118.411 138.536 118.21 138.301C118.013 138.062 117.859 137.837 117.75 137.625H117.664V142.273H115.608ZM117.625 134.636C117.625 135.201 117.704 135.695 117.863 136.119C118.026 136.544 118.259 136.875 118.562 137.114C118.869 137.348 119.24 137.466 119.676 137.466C120.13 137.466 120.511 137.345 120.818 137.102C121.125 136.856 121.356 136.521 121.511 136.097C121.67 135.669 121.75 135.182 121.75 134.636C121.75 134.095 121.672 133.614 121.517 133.193C121.361 132.773 121.13 132.443 120.824 132.205C120.517 131.966 120.134 131.847 119.676 131.847C119.236 131.847 118.863 131.962 118.556 132.193C118.25 132.424 118.017 132.748 117.858 133.165C117.702 133.581 117.625 134.072 117.625 134.636ZM129.966 130.273V131.864H124.949V130.273H129.966ZM126.187 128.182H128.244V136.375C128.244 136.652 128.286 136.864 128.369 137.011C128.456 137.155 128.57 137.254 128.71 137.307C128.85 137.36 129.005 137.386 129.176 137.386C129.305 137.386 129.422 137.377 129.528 137.358C129.638 137.339 129.721 137.322 129.778 137.307L130.125 138.915C130.015 138.953 129.858 138.994 129.653 139.04C129.452 139.085 129.206 139.112 128.914 139.119C128.399 139.134 127.935 139.057 127.522 138.886C127.109 138.712 126.782 138.443 126.539 138.08C126.301 137.716 126.183 137.261 126.187 136.716V128.182ZM131.686 139V130.273H133.743V139H131.686ZM132.72 129.034C132.394 129.034 132.114 128.926 131.879 128.71C131.644 128.491 131.527 128.227 131.527 127.92C131.527 127.61 131.644 127.347 131.879 127.131C132.114 126.911 132.394 126.801 132.72 126.801C133.049 126.801 133.33 126.911 133.561 127.131C133.796 127.347 133.913 127.61 133.913 127.92C133.913 128.227 133.796 128.491 133.561 128.71C133.33 128.926 133.049 129.034 132.72 129.034ZM139.664 139.17C138.812 139.17 138.074 138.983 137.449 138.608C136.824 138.233 136.339 137.708 135.994 137.034C135.653 136.36 135.483 135.572 135.483 134.67C135.483 133.769 135.653 132.979 135.994 132.301C136.339 131.623 136.824 131.097 137.449 130.722C138.074 130.347 138.812 130.159 139.664 130.159C140.517 130.159 141.255 130.347 141.88 130.722C142.505 131.097 142.988 131.623 143.329 132.301C143.674 132.979 143.846 133.769 143.846 134.67C143.846 135.572 143.674 136.36 143.329 137.034C142.988 137.708 142.505 138.233 141.88 138.608C141.255 138.983 140.517 139.17 139.664 139.17ZM139.676 137.523C140.138 137.523 140.524 137.396 140.835 137.142C141.145 136.884 141.377 136.54 141.528 136.108C141.683 135.676 141.761 135.195 141.761 134.665C141.761 134.131 141.683 133.648 141.528 133.216C141.377 132.78 141.145 132.434 140.835 132.176C140.524 131.919 140.138 131.79 139.676 131.79C139.202 131.79 138.808 131.919 138.494 132.176C138.183 132.434 137.95 132.78 137.795 133.216C137.644 133.648 137.568 134.131 137.568 134.665C137.568 135.195 137.644 135.676 137.795 136.108C137.95 136.54 138.183 136.884 138.494 137.142C138.808 137.396 139.202 137.523 139.676 137.523ZM147.649 133.886V139H145.592V130.273H147.558V131.756H147.66C147.861 131.267 148.181 130.879 148.62 130.591C149.064 130.303 149.611 130.159 150.262 130.159C150.865 130.159 151.389 130.288 151.836 130.545C152.287 130.803 152.636 131.176 152.882 131.665C153.132 132.153 153.255 132.746 153.251 133.443V139H151.194V133.761C151.194 133.178 151.043 132.722 150.74 132.392C150.44 132.062 150.026 131.898 149.495 131.898C149.136 131.898 148.815 131.977 148.535 132.136C148.259 132.292 148.041 132.517 147.882 132.812C147.726 133.108 147.649 133.466 147.649 133.886ZM162.24 132.58L160.365 132.784C160.312 132.595 160.219 132.417 160.086 132.25C159.958 132.083 159.783 131.949 159.564 131.847C159.344 131.744 159.075 131.693 158.757 131.693C158.329 131.693 157.969 131.786 157.677 131.972C157.389 132.157 157.247 132.398 157.251 132.693C157.247 132.947 157.34 133.153 157.529 133.312C157.723 133.472 158.041 133.602 158.484 133.705L159.973 134.023C160.798 134.201 161.412 134.483 161.814 134.869C162.219 135.256 162.423 135.761 162.427 136.386C162.423 136.936 162.262 137.42 161.944 137.841C161.63 138.258 161.192 138.583 160.632 138.818C160.071 139.053 159.427 139.17 158.7 139.17C157.632 139.17 156.772 138.947 156.12 138.5C155.469 138.049 155.081 137.422 154.956 136.619L156.961 136.426C157.052 136.82 157.245 137.117 157.541 137.318C157.836 137.519 158.221 137.619 158.694 137.619C159.183 137.619 159.575 137.519 159.87 137.318C160.17 137.117 160.319 136.869 160.319 136.574C160.319 136.324 160.223 136.117 160.029 135.955C159.84 135.792 159.545 135.667 159.143 135.58L157.654 135.267C156.817 135.093 156.198 134.799 155.797 134.386C155.395 133.97 155.196 133.443 155.2 132.807C155.196 132.269 155.342 131.803 155.637 131.409C155.937 131.011 156.351 130.705 156.882 130.489C157.416 130.269 158.031 130.159 158.728 130.159C159.751 130.159 160.556 130.377 161.143 130.812C161.734 131.248 162.1 131.837 162.24 132.58Z" fill="#BAB8B9"/>
<defs>
<linearGradient id="paint0_linear_969_2064" x1="5.73569" y1="100.396" x2="196.037" y2="77.349" gradientUnits="userSpaceOnUse">
<stop stop-color="#69E1A4"/>
<stop offset="1" stop-color="#9ED95B"/>
</linearGradient>
<clipPath id="clip0_969_2064">
<rect width="60" height="60" fill="white" transform="translate(69.7383 53)"/>
</clipPath>
</defs>
</svg>
