<svg width="199" height="199" viewBox="0 0 199 199" fill="none" xmlns="http://www.w3.org/2000/svg">
<rect width="198.61" height="198.61" rx="24" fill="url(#paint0_linear_969_2052)" fill-opacity="0.05"/>
<path d="M79.5195 81.75L78.307 82.0525C77.2253 82.3229 76.265 82.9471 75.5788 83.8258C74.8925 84.7046 74.5197 85.7875 74.5195 86.9025V91.595C74.5197 92.71 74.8925 93.7929 75.5788 94.6717C76.265 95.5504 77.2253 96.1746 78.307 96.445L82.657 97.5325C82.8781 97.5875 83.1087 97.5915 83.3316 97.5441C83.5544 97.4968 83.7635 97.3993 83.943 97.259C84.1225 97.1188 84.2677 96.9395 84.3676 96.7348C84.4675 96.5301 84.5194 96.3053 84.5195 96.0775V82.42C84.5195 82.1919 84.4676 81.9669 84.3675 81.7619C84.2675 81.557 84.122 81.3775 83.9422 81.2373C83.7624 81.097 83.5529 80.9995 83.3298 80.9524C83.1067 80.9052 82.8757 80.9095 82.6545 80.965L79.5195 81.75ZM79.5195 81.75V80.5C79.5195 75.1957 81.6267 70.1086 85.3774 66.3579C89.1281 62.6071 94.2152 60.5 99.5195 60.5C104.824 60.5 109.911 62.6071 113.662 66.3579C117.412 70.1086 119.52 75.1957 119.52 80.5V81.75M119.52 81.75L120.732 82.0525C121.814 82.3229 122.774 82.9471 123.46 83.8258C124.147 84.7046 124.519 85.7875 124.52 86.9025V91.595C124.519 92.71 124.147 93.7929 123.46 94.6717C122.774 95.5504 121.814 96.1746 120.732 96.445L119.52 96.75M119.52 81.75L116.382 80.965C116.161 80.9099 115.93 80.906 115.708 80.9534C115.485 81.0007 115.276 81.0982 115.096 81.2385C114.917 81.3787 114.771 81.558 114.671 81.7627C114.572 81.9674 114.52 82.1922 114.52 82.42V96.0775C114.52 96.3053 114.572 96.5301 114.671 96.7348C114.771 96.9395 114.917 97.1188 115.096 97.259C115.276 97.3993 115.485 97.4968 115.708 97.5441C115.93 97.5915 116.161 97.5875 116.382 97.5325L119.52 96.75M119.52 96.75V99.25C119.52 100.576 118.993 101.848 118.055 102.786C117.117 103.723 115.846 104.25 114.52 104.25H107.02M107.02 104.25C107.02 103.255 106.624 102.302 105.921 101.598C105.218 100.895 104.264 100.5 103.27 100.5H95.7695C94.775 100.5 93.8211 100.895 93.1179 101.598C92.4146 102.302 92.0195 103.255 92.0195 104.25C92.0195 105.245 92.4146 106.198 93.1179 106.902C93.8211 107.605 94.775 108 95.7695 108H103.27C104.264 108 105.218 107.605 105.921 106.902C106.624 106.198 107.02 105.245 107.02 104.25Z" stroke="#95DA66" stroke-opacity="0.8" stroke-width="3"/>
<path d="M54.1673 139V127.364H56.2752V132.29H61.6673V127.364H63.7809V139H61.6673V134.057H56.2752V139H54.1673ZM69.8462 139.17C68.9712 139.17 68.2156 138.989 67.5792 138.625C66.9466 138.258 66.4599 137.739 66.119 137.068C65.7781 136.394 65.6076 135.6 65.6076 134.688C65.6076 133.79 65.7781 133.002 66.119 132.324C66.4637 131.642 66.9447 131.112 67.5621 130.733C68.1796 130.35 68.9049 130.159 69.7383 130.159C70.2762 130.159 70.7837 130.246 71.261 130.42C71.7421 130.591 72.1663 130.856 72.5337 131.216C72.9049 131.576 73.1966 132.034 73.4087 132.591C73.6209 133.144 73.7269 133.803 73.7269 134.568V135.199H66.5735V133.812H71.7553C71.7515 133.419 71.6663 133.068 71.4996 132.761C71.333 132.451 71.1 132.206 70.8008 132.028C70.5053 131.85 70.1606 131.761 69.7667 131.761C69.3462 131.761 68.9769 131.864 68.6587 132.068C68.3406 132.269 68.0924 132.534 67.9144 132.864C67.7402 133.189 67.6512 133.547 67.6474 133.938V135.148C67.6474 135.655 67.7402 136.091 67.9258 136.455C68.1114 136.814 68.3709 137.091 68.7042 137.284C69.0375 137.473 69.4277 137.568 69.8746 137.568C70.1739 137.568 70.4447 137.527 70.6871 137.443C70.9296 137.356 71.1398 137.229 71.3178 137.062C71.4959 136.896 71.6303 136.689 71.7212 136.443L73.6417 136.659C73.5205 137.167 73.2894 137.61 72.9485 137.989C72.6114 138.364 72.1796 138.655 71.6531 138.864C71.1265 139.068 70.5243 139.17 69.8462 139.17ZM77.5238 127.364V139H75.467V127.364H77.5238ZM79.6388 142.273V130.273H81.6616V131.716H81.7809C81.887 131.504 82.0366 131.278 82.2298 131.04C82.4229 130.797 82.6843 130.591 83.0138 130.42C83.3434 130.246 83.7638 130.159 84.2752 130.159C84.9495 130.159 85.5574 130.331 86.0991 130.676C86.6445 131.017 87.0763 131.523 87.3945 132.193C87.7165 132.86 87.8775 133.678 87.8775 134.648C87.8775 135.606 87.7203 136.42 87.4059 137.091C87.0915 137.761 86.6635 138.273 86.1218 138.625C85.5801 138.977 84.9665 139.153 84.2809 139.153C83.7809 139.153 83.3661 139.07 83.0366 138.903C82.707 138.737 82.4419 138.536 82.2411 138.301C82.0442 138.062 81.8907 137.837 81.7809 137.625H81.6957V142.273H79.6388ZM81.6559 134.636C81.6559 135.201 81.7354 135.695 81.8945 136.119C82.0574 136.544 82.2904 136.875 82.5934 137.114C82.9002 137.348 83.2714 137.466 83.707 137.466C84.1616 137.466 84.5423 137.345 84.8491 137.102C85.1559 136.856 85.387 136.521 85.5423 136.097C85.7013 135.669 85.7809 135.182 85.7809 134.636C85.7809 134.095 85.7032 133.614 85.5479 133.193C85.3926 132.773 85.1616 132.443 84.8548 132.205C84.5479 131.966 84.1654 131.847 83.707 131.847C83.2676 131.847 82.8945 131.962 82.5877 132.193C82.2809 132.424 82.0479 132.748 81.8888 133.165C81.7335 133.581 81.6559 134.072 81.6559 134.636ZM103.659 131.29H101.534C101.473 130.941 101.361 130.633 101.199 130.364C101.036 130.091 100.833 129.86 100.591 129.67C100.348 129.481 100.072 129.339 99.761 129.244C99.4542 129.146 99.1228 129.097 98.7667 129.097C98.1341 129.097 97.5735 129.256 97.0849 129.574C96.5962 129.888 96.2137 130.35 95.9371 130.96C95.6606 131.566 95.5224 132.307 95.5224 133.182C95.5224 134.072 95.6606 134.822 95.9371 135.432C96.2174 136.038 96.6 136.496 97.0849 136.807C97.5735 137.114 98.1322 137.267 98.761 137.267C99.1095 137.267 99.4353 137.222 99.7383 137.131C100.045 137.036 100.32 136.898 100.562 136.716C100.808 136.534 101.015 136.311 101.181 136.045C101.352 135.78 101.469 135.477 101.534 135.136L103.659 135.148C103.579 135.701 103.407 136.22 103.142 136.705C102.88 137.189 102.538 137.617 102.113 137.989C101.689 138.356 101.193 138.644 100.625 138.852C100.056 139.057 99.4258 139.159 98.7326 139.159C97.7099 139.159 96.797 138.922 95.994 138.449C95.1909 137.975 94.5584 137.292 94.0962 136.398C93.6341 135.504 93.4031 134.432 93.4031 133.182C93.4031 131.928 93.636 130.856 94.1019 129.966C94.5678 129.072 95.2023 128.388 96.0053 127.915C96.8084 127.441 97.7174 127.205 98.7326 127.205C99.3803 127.205 99.9826 127.295 100.539 127.477C101.096 127.659 101.592 127.926 102.028 128.278C102.464 128.627 102.822 129.055 103.102 129.562C103.386 130.066 103.572 130.642 103.659 131.29ZM109.362 139.17C108.487 139.17 107.731 138.989 107.095 138.625C106.462 138.258 105.975 137.739 105.635 137.068C105.294 136.394 105.123 135.6 105.123 134.688C105.123 133.79 105.294 133.002 105.635 132.324C105.979 131.642 106.46 131.112 107.078 130.733C107.695 130.35 108.421 130.159 109.254 130.159C109.792 130.159 110.299 130.246 110.777 130.42C111.258 130.591 111.682 130.856 112.049 131.216C112.421 131.576 112.712 132.034 112.924 132.591C113.136 133.144 113.243 133.803 113.243 134.568V135.199H106.089V133.812H111.271C111.267 133.419 111.182 133.068 111.015 132.761C110.849 132.451 110.616 132.206 110.316 132.028C110.021 131.85 109.676 131.761 109.282 131.761C108.862 131.761 108.493 131.864 108.174 132.068C107.856 132.269 107.608 132.534 107.43 132.864C107.256 133.189 107.167 133.547 107.163 133.938V135.148C107.163 135.655 107.256 136.091 107.441 136.455C107.627 136.814 107.886 137.091 108.22 137.284C108.553 137.473 108.943 137.568 109.39 137.568C109.69 137.568 109.96 137.527 110.203 137.443C110.445 137.356 110.655 137.229 110.833 137.062C111.011 136.896 111.146 136.689 111.237 136.443L113.157 136.659C113.036 137.167 112.805 137.61 112.464 137.989C112.127 138.364 111.695 138.655 111.169 138.864C110.642 139.068 110.04 139.17 109.362 139.17ZM117.039 133.886V139H114.983V130.273H116.949V131.756H117.051C117.252 131.267 117.572 130.879 118.011 130.591C118.454 130.303 119.002 130.159 119.653 130.159C120.255 130.159 120.78 130.288 121.227 130.545C121.678 130.803 122.026 131.176 122.272 131.665C122.522 132.153 122.645 132.746 122.642 133.443V139H120.585V133.761C120.585 133.178 120.433 132.722 120.13 132.392C119.831 132.062 119.416 131.898 118.886 131.898C118.526 131.898 118.206 131.977 117.926 132.136C117.649 132.292 117.431 132.517 117.272 132.812C117.117 133.108 117.039 133.466 117.039 133.886ZM129.091 130.273V131.864H124.074V130.273H129.091ZM125.312 128.182H127.369V136.375C127.369 136.652 127.411 136.864 127.494 137.011C127.581 137.155 127.695 137.254 127.835 137.307C127.975 137.36 128.13 137.386 128.301 137.386C128.43 137.386 128.547 137.377 128.653 137.358C128.763 137.339 128.846 137.322 128.903 137.307L129.25 138.915C129.14 138.953 128.983 138.994 128.778 139.04C128.577 139.085 128.331 139.112 128.039 139.119C127.524 139.134 127.06 139.057 126.647 138.886C126.234 138.712 125.907 138.443 125.664 138.08C125.426 137.716 125.308 137.261 125.312 136.716V128.182ZM134.581 139.17C133.706 139.17 132.95 138.989 132.314 138.625C131.681 138.258 131.194 137.739 130.853 137.068C130.512 136.394 130.342 135.6 130.342 134.688C130.342 133.79 130.512 133.002 130.853 132.324C131.198 131.642 131.679 131.112 132.297 130.733C132.914 130.35 133.639 130.159 134.473 130.159C135.011 130.159 135.518 130.246 135.995 130.42C136.476 130.591 136.901 130.856 137.268 131.216C137.639 131.576 137.931 132.034 138.143 132.591C138.355 133.144 138.461 133.803 138.461 134.568V135.199H131.308V133.812H136.49C136.486 133.419 136.401 133.068 136.234 132.761C136.067 132.451 135.834 132.206 135.535 132.028C135.24 131.85 134.895 131.761 134.501 131.761C134.081 131.761 133.711 131.864 133.393 132.068C133.075 132.269 132.827 132.534 132.649 132.864C132.475 133.189 132.386 133.547 132.382 133.938V135.148C132.382 135.655 132.475 136.091 132.66 136.455C132.846 136.814 133.105 137.091 133.439 137.284C133.772 137.473 134.162 137.568 134.609 137.568C134.908 137.568 135.179 137.527 135.422 137.443C135.664 137.356 135.874 137.229 136.052 137.062C136.23 136.896 136.365 136.689 136.456 136.443L138.376 136.659C138.255 137.167 138.024 137.61 137.683 137.989C137.346 138.364 136.914 138.655 136.387 138.864C135.861 139.068 135.259 139.17 134.581 139.17ZM140.201 139V130.273H142.196V131.727H142.287C142.446 131.223 142.718 130.835 143.105 130.562C143.495 130.286 143.94 130.148 144.44 130.148C144.554 130.148 144.681 130.153 144.821 130.165C144.965 130.172 145.084 130.186 145.179 130.205V132.097C145.092 132.066 144.953 132.04 144.764 132.017C144.578 131.991 144.398 131.977 144.224 131.977C143.849 131.977 143.512 132.059 143.213 132.222C142.917 132.381 142.684 132.602 142.514 132.886C142.343 133.17 142.258 133.498 142.258 133.869V139H140.201Z" fill="#BAB8B9"/>
<defs>
<linearGradient id="paint0_linear_969_2052" x1="5.51694" y1="100.396" x2="195.819" y2="77.349" gradientUnits="userSpaceOnUse">
<stop stop-color="#69E1A4"/>
<stop offset="1" stop-color="#9ED95B"/>
</linearGradient>
</defs>
</svg>
