<svg width="48" height="48" viewBox="0 0 48 48" fill="none" xmlns="http://www.w3.org/2000/svg">
<rect width="48" height="48" rx="8" fill="#27282B"/>
<path d="M38 26V31.5C38 33 37.1 34.3 35.7 35L34 35.8L32.3 35C30.9 34.4 30 33 30 31.5V26H38ZM40 24H28V31.5C28 33.7 29.3 35.8 31.4 36.8L34 38L36.6 36.8C38.7 35.8 40 33.8 40 31.5V24Z" fill="white" fill-opacity="0.5"/>
<path d="M24 33H15.5C11.4 33 8 29.6 8 25.5C8 21.8 10.7 18.8 14.2 18.1C15.1 13.4 19.2 10 24 10C29.5 10 34 14.5 34 20H32C32 15.6 28.4 12 24 12C19.9 12 16.5 15.1 16 19.1V20H15.1C12.2 20.2 10 22.6 10 25.5C10 28.5 12.5 31 15.5 31H24V33Z" fill="white" fill-opacity="0.5"/>
</svg>
