<svg width="48" height="48" viewBox="0 0 48 48" fill="none" xmlns="http://www.w3.org/2000/svg">
<rect width="48" height="48" rx="8" fill="#27282B"/>
<path d="M37.3346 19.9998V17.3332C37.3346 16.6259 37.0537 15.9476 36.5536 15.4476C36.0535 14.9475 35.3752 14.6665 34.668 14.6665H13.3346C12.6274 14.6665 11.9491 14.9475 11.449 15.4476C10.9489 15.9476 10.668 16.6259 10.668 17.3332V30.6665C10.668 31.3737 10.9489 32.052 11.449 32.5521C11.9491 33.0522 12.6274 33.3332 13.3346 33.3332H24.0013M37.3346 19.9998H16.0013M37.3346 19.9998V22.6665" stroke="white" stroke-opacity="0.5" stroke-width="1.5" stroke-linecap="round" stroke-linejoin="round"/>
<path d="M33.3252 26.832L36.7332 27.6973C37.0879 27.788 37.3372 28.1107 37.3266 28.476C37.0972 36.1533 32.6692 37.332 32.6692 37.332C32.6692 37.332 28.2412 36.1533 28.0119 28.476C28.0082 28.2983 28.0649 28.1245 28.1727 27.9831C28.2804 27.8417 28.4329 27.741 28.6052 27.6973L32.0132 26.832C32.4439 26.7227 32.8946 26.7227 33.3252 26.832Z" stroke="white" stroke-opacity="0.5" stroke-width="1.5" stroke-linecap="round" stroke-linejoin="round"/>
</svg>
