<svg width="56" height="57" viewBox="0 0 56 57" fill="none" xmlns="http://www.w3.org/2000/svg">
<circle cx="28" cy="28.5" r="28" fill="white"/>
<path d="M43.556 17.3906H12.4449C11.8555 17.3906 11.2903 17.6248 10.8735 18.0415C10.4568 18.4582 10.2227 19.0235 10.2227 19.6128V37.3906C10.2227 37.98 10.4568 38.5452 10.8735 38.962C11.2903 39.3787 11.8555 39.6128 12.4449 39.6128H43.556C44.1454 39.6128 44.7106 39.3787 45.1273 38.962C45.5441 38.5452 45.7782 37.98 45.7782 37.3906V19.6128C45.7782 19.0235 45.5441 18.4582 45.1273 18.0415C44.7106 17.6248 44.1454 17.3906 43.556 17.3906ZM12.4449 37.3906V32.0017C13.8339 32.104 15.1386 32.7064 16.1173 33.6974C17.096 34.6883 17.6821 36.0005 17.7671 37.3906H12.4449ZM12.4449 25.0017V19.6128H17.7671C17.6821 21.003 17.096 22.3152 16.1173 23.3061C15.1386 24.297 13.8339 24.8995 12.4449 25.0017ZM28.0004 36.4462C24.1449 36.4462 21.0004 32.8795 21.0004 28.5017C21.0004 24.124 24.1449 20.5573 28.0004 20.5573C31.856 20.5573 35.0004 24.124 35.0004 28.5017C35.0004 32.8795 31.856 36.4462 28.0004 36.4462ZM43.556 37.3906H38.2782C38.3619 36.0075 38.9418 34.7011 39.9113 33.7111C40.8808 32.7212 42.1749 32.1142 43.556 32.0017V37.3906ZM43.556 25.0017C42.1749 24.8892 40.8808 24.2823 39.9113 23.2924C38.9418 22.3024 38.3619 20.9959 38.2782 19.6128H43.556V25.0017Z" fill="#648A3A"/>
<path d="M27.9991 33.7428C30.4537 33.7428 32.4436 31.3948 32.4436 28.4984C32.4436 25.6019 30.4537 23.2539 27.9991 23.2539C25.5445 23.2539 23.5547 25.6019 23.5547 28.4984C23.5547 31.3948 25.5445 33.7428 27.9991 33.7428Z" fill="#648A3A"/>
</svg>
